<?xml version="1.0" encoding="utf-8"?>
<!-- Generator: Adobe Illustrator 27.5.0, SVG Export Plug-In . SVG Version: 6.00 Build 0)  -->
<svg version="1.1" xmlns="http://www.w3.org/2000/svg" xmlns:xlink="http://www.w3.org/1999/xlink" x="0px" y="0px"
	 viewBox="0 0 3710 3710" style="enable-background:new 0 0 3710 3710;" xml:space="preserve">
<g id="Background">
	<g>
		<g>
			<rect style="fill:#FFFFFF;" width="3710" height="3710"/>
		</g>
	</g>
</g>
<g id="Illustration">
	<g>
		<path style="fill:#F4F7FA;" d="M2578.939,621.911c93.657,134.075-16.158,351.442,122.813,452.278
			c135.278,98.156,301.461-62.734,428.951,21.757c189.125,125.339,154.587,698.865-121.923,1055.208
			c-83.156,107.165-152.638,148.861-183.411,270.059c-66.079,260.243,166.155,415.052,121.961,543.764
			c-99.509,289.813-1629.878,532.999-2243.931-337.983c-286.788-406.785-329.698-994.185-73.461-1440.319
			C1092.952,380.518,2368.79,321.072,2578.939,621.911z"/>
		<g>
			<g>
				<defs>
					<path id="SVGID_1_" d="M1742.563,2224.944l187.085,165.574c0,0,120.153-64.802,134.248-173.107
						c28.757-220.975,220.286-180.366,303.051-175.358c124.816,7.552,238.102-40.228,161.663-172.327
						s181.232-203.705,381.052-162.457c195.537,40.364,380.12-283.933-35.074-410.156
						c-247.953-75.38-385.889,136.165-480.943,226.433c-95.054,90.268-247.661-30.363-303.613,133.158
						c-47.794,139.677-32.861,285.583-156.604,301.176C1809.684,1973.472,1733.69,2046.488,1742.563,2224.944z"/>
				</defs>
				
					<linearGradient id="SVGID_00000181076828095483338900000000442358762046346943_" gradientUnits="userSpaceOnUse" x1="1280.8451" y1="1760.9453" x2="2710.6084" y2="1760.9453" gradientTransform="matrix(0.9973 -0.074 0.074 0.9973 309.4537 221.0466)">
					<stop  offset="0" style="stop-color:#FFC444"/>
					<stop  offset="0.9964" style="stop-color:#F36F56"/>
				</linearGradient>
				
					<use xlink:href="#SVGID_1_"  style="overflow:visible;fill:url(#SVGID_00000181076828095483338900000000442358762046346943_);"/>
				<clipPath id="SVGID_00000127040521680371181600000009590441222013885358_">
					<use xlink:href="#SVGID_1_"  style="overflow:visible;"/>
				</clipPath>
				
					<linearGradient id="SVGID_00000078745125001833586790000013578202531539714486_" gradientUnits="userSpaceOnUse" x1="7438.6294" y1="16.8267" x2="6941.2388" y2="1430.464" gradientTransform="matrix(0.7488 0.6627 -0.6627 0.7488 -2521.5762 -3513.093)">
					<stop  offset="0" style="stop-color:#FFC444"/>
					<stop  offset="0.9964" style="stop-color:#F36F56"/>
				</linearGradient>
				
					<path style="clip-path:url(#SVGID_00000127040521680371181600000009590441222013885358_);fill:url(#SVGID_00000078745125001833586790000013578202531539714486_);" d="
					M1742.563,2224.944l187.085,165.574c0,0,120.153-64.802,134.248-173.107c28.757-220.975,220.286-180.366,303.051-175.358
					c124.816,7.552,223.303-38.254,177.433-165.105c-51.899-143.525,165.462-210.926,365.282-169.678
					c195.537,40.364,380.12-283.933-35.074-410.156c-247.953-75.38-385.889,136.165-480.943,226.433
					c-95.054,90.268-247.661-30.363-303.613,133.158c-47.794,139.677-32.861,285.583-156.604,301.176
					C1809.684,1973.472,1733.69,2046.488,1742.563,2224.944z"/>
				<g style="opacity:0.5;clip-path:url(#SVGID_00000127040521680371181600000009590441222013885358_);">
					<path style="fill:#BEB8F2;" d="M1808.167,2313.968l4.515,2.726c1.688-2.797,171.742-282.168,423.831-508.287
						c232.24-208.318,583.658-412.749,938.942-203.653l2.675-4.545c-158.156-93.081-328.697-113.372-506.888-60.313
						c-142.344,42.385-289.82,131.428-438.332,264.655C1980.262,2031.202,1809.86,2311.166,1808.167,2313.968z"/>
					<path style="fill:#BEB8F2;" d="M2597.739,1565.285l4.353,2.98c99.208-144.819,312.897-286.134,315.043-287.545l-2.894-4.409
						C2912.085,1277.729,2697.528,1419.617,2597.739,1565.285z"/>
					<path style="fill:#BEB8F2;" d="M2717.436,1533.186c206.264,34.832,295.306,184.514,296.181,186.021l4.561-2.645
						c-0.886-1.532-91.07-153.316-299.863-188.576L2717.436,1533.186z"/>
					<path style="fill:#BEB8F2;" d="M2079.76,1965.215c208.959-147.127,502.635,31.344,505.351,33.323l3.374-4.047
						c-2.481-2.194-300.947-182.021-511.761-33.587L2079.76,1965.215z"/>
					<path style="fill:#BEB8F2;" d="M2148.372,1885.233l4.582,2.618c80.946-141.568,24.063-338.613,23.479-340.589l-5.057,1.496
						C2171.953,1550.713,2228.192,1745.643,2148.372,1885.233z"/>
					<path style="fill:#BEB8F2;" d="M1840.409,2273.322c69.839-67.436,224.105-33.245,225.655-32.894l1.172-5.14
						c-6.44-1.47-158.592-35.186-230.49,34.242L1840.409,2273.322z"/>
					<path style="fill:#BEB8F2;" d="M1879.79,2206.623l4.482,2.78c40.473-65.224,10.688-204.146,0.9-249.797
						c-1.383-6.452-2.576-12.02-2.594-13.055l-5.274,0.013c0.003,1.459,0.786,5.163,2.711,14.146
						C1889.693,2005.848,1919.142,2143.205,1879.79,2206.623z"/>
				</g>
			</g>
			<g>
				
					<linearGradient id="SVGID_00000007416859331932385840000012144954895470469517_" gradientUnits="userSpaceOnUse" x1="2464.488" y1="873.7888" x2="3528.697" y2="2625.7515" gradientTransform="matrix(-0.9966 -0.0826 -0.0826 0.9966 5312.7368 -90.8192)">
					<stop  offset="0" style="stop-color:#FF9085"/>
					<stop  offset="1" style="stop-color:#FB6FBB"/>
				</linearGradient>
				<path style="fill:url(#SVGID_00000007416859331932385840000012144954895470469517_);" d="M1915.093,2271.692
					c-20.618-4.344-120.119,175.519-169.479,32.932c-12.332-35.623-19.846-155.976-173.748-174.063
					c-29.874-3.511-59.75-7.025-89.625-10.536c-20.282-69.412-26.537-138.589,66.481-156.942
					c144.453-28.499,163.833-264.123,130.615-350.765c-41.111-107.235-131.474-358.678,91.035-406.085
					c185.238-39.468,314.14-28.858,341.802-249.03c27.664-220.174,164.59-347.728,375.708-317.193
					c222.17,32.134,424.113-233.897,600.543-124.917c307.417,189.9-14.068,653.745-410.947,763.222
					c-396.877,109.478-183.618,259.766-185.404,441.656c-1.123,16.875-4.164,42.951-13.597,73.048
					c-58.076,185.287-257.795,201.71-411.365,344.76C1857.674,2332.868,1949.827,2279.011,1915.093,2271.692z"/>
				<g>
					<defs>
						<path id="SVGID_00000014636191718189139670000012684264300918580100_" d="M1981.093,2217.938l-485.886-43.464
							c-23.363-67.607-50.388-190.89,53.514-211.389c144.455-28.501,163.833-264.124,130.616-350.766
							c-41.112-107.235-131.475-358.679,91.036-406.086c185.238-39.467,314.138-28.856,341.801-249.029
							c27.664-220.173,164.591-347.727,375.71-317.192c222.169,32.134,424.112-233.899,600.542-124.916
							c307.419,189.898-14.067,653.741-410.945,763.22c-396.878,109.478-183.619,259.766-185.405,441.656
							c-2.437,248.319-351.958,166.569-451.787,256.019C1962.028,2046.112,1968.496,2152.257,1981.093,2217.938z"/>
					</defs>
					<clipPath id="SVGID_00000162332822442666248020000006493027768978320540_">
						<use xlink:href="#SVGID_00000014636191718189139670000012684264300918580100_"  style="overflow:visible;"/>
					</clipPath>
					<g style="opacity:0.5;clip-path:url(#SVGID_00000162332822442666248020000006493027768978320540_);">
						<path style="fill:#FCFDFE;" d="M1757.801,2125.162l-10.186-2.846c202.944-701.268,766.26-1298.04,1470.119-1557.426
							l4.014,9.337C2520.856,832.521,1959.903,1426.806,1757.801,2125.162z"/>
						<path style="fill:#FCFDFE;" d="M1903.221,1752.553l-10.533-0.896c20.402-286.33-222.753-531.609-225.213-534.053l7.562-6.819
							C1677.53,1213.258,1923.943,1461.71,1903.221,1752.553z"/>
						<path style="fill:#FCFDFE;" d="M1798.869,1997.202l-8.932-5.522c163.874-243.058,723.877-231.689,729.515-231.544
							l-0.045,10.003C2513.83,1769.997,1959.626,1758.766,1798.869,1997.202z"/>
						<path style="fill:#FCFDFE;" d="M2321.471,1164.208l-9.384-4.787c111.907-203.006-10.657-540.518-11.907-543.904l9.951-3.121
							C2311.398,615.822,2435.447,957.452,2321.471,1164.208z"/>
						<path style="fill:#FCFDFE;" d="M2681.381,856.613l-4.914-8.962c246.048-117.255,606.565-10.15,610.183-9.048l-3.009,9.525
							C3280.07,847.038,2923.593,741.182,2681.381,856.613z"/>
					</g>
				</g>
			</g>
		</g>
		<g>
			<path style="fill:#97A6B7;" d="M2879.507,2873.391l-2188.437-19.06v56.395c0,15.307,9.545,28.322,22.473,30.641l618.824,111.051
				c7.344,1.318,14.792,1.667,22.202,1.043l1501.156-126.617c13.402-1.13,23.782-14.186,23.782-29.912V2873.391z"/>
			<path style="fill:#97A6B7;" d="M2175.021,2781.972L715.156,2885.139c-26.123,1.846-47.364-17.77-47.364-43.819V1797.69
				c0-26.049,21.241-47.167,47.364-47.167h1459.865c21.521,0,38.922,19.09,38.922,42.638v943.422
				C2213.944,2760.131,2196.543,2780.451,2175.021,2781.972z"/>
			<path style="fill:#D8DEE8;" d="M2198.299,2781.972L738.434,2885.139c-26.124,1.846-47.364-17.77-47.364-43.819V1797.69
				c0-26.049,21.24-47.167,47.364-47.167h1459.865c21.523,0,38.923,19.09,38.923,42.638v943.422
				C2237.222,2760.131,2219.821,2780.451,2198.299,2781.972z"/>
			
				<linearGradient id="SVGID_00000043447386071753201820000003892967787503187874_" gradientUnits="userSpaceOnUse" x1="1984.2025" y1="1548.0203" x2="727.6472" y2="3303.9739">
				<stop  offset="0" style="stop-color:#AA80F9"/>
				<stop  offset="0.9964" style="stop-color:#6165D7"/>
			</linearGradient>
			<path style="fill:url(#SVGID_00000043447386071753201820000003892967787503187874_);" d="M2152.82,2715.459l-1359.712,89.615
				c-21.259,1.401-38.534-14.699-38.534-35.965v-913.7c0-21.266,17.276-38.577,38.534-38.665l1359.712-5.627
				c17.754-0.074,32.115,15.569,32.115,34.938v832.217C2184.935,2697.64,2170.574,2714.289,2152.82,2715.459z"/>
			<path style="fill:#FFFFFF;" d="M1519.925,1779.069c0,9.697-7.514,17.581-16.792,17.609c-9.29,0.029-16.829-7.828-16.829-17.546
				c0-9.719,7.539-17.603,16.829-17.61C1512.411,1761.516,1519.925,1769.371,1519.925,1779.069z"/>
			<path style="fill:#D8DEE8;" d="M2161.872,2777.293L691.07,2885.887l641.297,115.083c7.344,1.318,14.792,1.668,22.202,1.043
				l1524.938-128.622l-694.239-95.36C2177.504,2776.965,2169.674,2776.717,2161.872,2777.293z"/>
			
				<linearGradient id="SVGID_00000098178509393931706240000000174159184311861146_" gradientUnits="userSpaceOnUse" x1="905.6832" y1="2871.7212" x2="2509.1372" y2="2871.7212">
				<stop  offset="0" style="stop-color:#40447E"/>
				<stop  offset="0.9964" style="stop-color:#3C3B6B"/>
			</linearGradient>
			<polygon style="opacity:0.3;fill:url(#SVGID_00000098178509393931706240000000174159184311861146_);" points="905.683,2888.617 
				2130.169,2796.863 2509.137,2848.498 1295.199,2946.579 			"/>
			<path style="opacity:0.48;fill:#FFFFFF;" d="M1846.567,2495.74c-112.543-60.553-201.034,16.175-286.435-59.529
				c-51.776-45.897-26.356-80.122-90.065-148.71c-70.563-75.966-116.503-50.43-187.416-118.801
				c-89.666-86.449-44.82-153.709-122.056-215.777c-93.698-75.298-194.746-5.605-283.941-77.818
				c-38.47-31.146-59.578-76.426-70.6-124.582h-87.272c-15.293,0-27.712,12.395-27.712,27.685v1081.813
				c0,15.29,12.419,26.804,27.712,25.718l1487.842-105.61c7.301-0.518,13.776-4.781,17.931-10.962
				c-108.914-3.969-175.826-40.481-218.598-78.226C1922.285,2617.103,1936.798,2544.288,1846.567,2495.74z"/>
		</g>
		<g>
			<g>
				<g>
					<g>
						
							<linearGradient id="SVGID_00000124122616736112872890000012104609776114847629_" gradientUnits="userSpaceOnUse" x1="743.9089" y1="1500.8232" x2="848.5274" y2="1500.8232">
							<stop  offset="0" style="stop-color:#444B8C"/>
							<stop  offset="0.9964" style="stop-color:#26264F"/>
						</linearGradient>
						<path style="fill:url(#SVGID_00000124122616736112872890000012104609776114847629_);" d="M848.525,1500.704
							c-0.296,27.153-23.942,49.335-52.76,49.447c-28.868,0.112-52.151-21.961-51.853-49.205
							c0.297-27.247,24.063-49.429,52.93-49.45C825.66,1451.473,848.821,1473.546,848.525,1500.704z M766.414,1500.894
							c-0.17,15.542,13.108,28.143,29.581,28.09c16.459-0.053,29.973-12.717,30.143-28.229
							c0.169-15.515-13.069-28.117-29.528-28.094C780.138,1472.685,766.584,1485.349,766.414,1500.894z"/>
						
							<linearGradient id="SVGID_00000124849901450826303240000006644660154230874278_" gradientUnits="userSpaceOnUse" x1="791.4171" y1="1264.0717" x2="895.7324" y2="1264.0717">
							<stop  offset="0" style="stop-color:#444B8C"/>
							<stop  offset="0.9964" style="stop-color:#26264F"/>
						</linearGradient>
						<path style="fill:url(#SVGID_00000124849901450826303240000006644660154230874278_);" d="M895.73,1264.34
							c-0.296,27.119-23.874,49.095-52.605,48.991c-28.787-0.104-52.002-22.322-51.704-49.531
							c0.297-27.205,23.994-49.181,52.78-48.987C872.931,1215.006,896.026,1237.224,895.73,1264.34z M813.856,1263.916
							c-0.169,15.523,13.069,28.208,29.499,28.277c16.408,0.071,29.884-12.475,30.053-27.969
							c0.169-15.491-13.031-28.175-29.439-28.274C827.54,1235.851,814.026,1248.397,813.856,1263.916z"/>
						
							<linearGradient id="SVGID_00000099637701559105815380000000705502367110444975_" gradientUnits="userSpaceOnUse" x1="620.4627" y1="1027.8937" x2="725.9143" y2="1027.8937">
							<stop  offset="0" style="stop-color:#444B8C"/>
							<stop  offset="0.9964" style="stop-color:#26264F"/>
						</linearGradient>
						<path style="fill:url(#SVGID_00000099637701559105815380000000705502367110444975_);" d="M725.911,1028.557
							c-0.298,27.268-24.13,49.189-53.175,48.869c-29.102-0.32-52.57-22.836-52.271-50.194
							c0.299-27.358,24.252-49.278,53.353-48.867C702.862,978.775,726.209,1001.289,725.911,1028.557z M643.147,1027.516
							c-0.171,15.609,13.214,28.462,29.822,28.657c16.587,0.194,30.209-12.322,30.379-27.901
							c0.17-15.578-13.175-28.432-29.761-28.655C656.978,999.394,643.318,1011.908,643.147,1027.516z"/>
						
							<linearGradient id="SVGID_00000017514967400059506730000007604757597199551117_" gradientUnits="userSpaceOnUse" x1="934.728" y1="1009.0146" x2="1038.1133" y2="1009.0146">
							<stop  offset="0" style="stop-color:#444B8C"/>
							<stop  offset="0.9964" style="stop-color:#26264F"/>
						</linearGradient>
						<path style="fill:url(#SVGID_00000017514967400059506730000007604757597199551117_);" d="M1038.11,1009.703
							c-0.295,26.996-23.664,48.688-52.139,48.354c-28.531-0.335-51.536-22.643-51.24-49.728
							c0.296-27.089,23.782-48.779,52.312-48.355C1015.518,960.397,1038.406,982.703,1038.11,1009.703z M956.968,1008.624
							c-0.169,15.452,12.951,28.188,29.234,28.389c16.262,0.202,29.618-12.182,29.786-27.604
							c0.169-15.426-12.912-28.161-29.174-28.392C970.531,980.787,957.137,993.17,956.968,1008.624z"/>
						<g>
							
								<linearGradient id="SVGID_00000093896989171483531000000010037598165650822282_" gradientUnits="userSpaceOnUse" x1="813.4719" y1="1436.7786" x2="1205.2905" y2="1436.7786">
								<stop  offset="0" style="stop-color:#444B8C"/>
								<stop  offset="0.9964" style="stop-color:#26264F"/>
							</linearGradient>
							<polygon style="fill:url(#SVGID_00000093896989171483531000000010037598165650822282_);" points="1205.291,1373.492 
								1205.062,1394.386 1027.069,1394.198 824.148,1500.382 813.472,1481.909 1021.573,1373.175 							"/>
							
								<linearGradient id="SVGID_00000145032740320264843770000006608056157614353597_" gradientUnits="userSpaceOnUse" x1="884.5236" y1="1259.0397" x2="1206.6469" y2="1259.0397">
								<stop  offset="0" style="stop-color:#444B8C"/>
								<stop  offset="0.9964" style="stop-color:#26264F"/>
							</linearGradient>
							<polygon style="fill:url(#SVGID_00000145032740320264843770000006608056157614353597_);" points="1206.647,1249.508 
								1206.418,1270.402 884.524,1268.786 884.754,1247.677 							"/>
							
								<linearGradient id="SVGID_00000134233356447305025150000010398764519238415262_" gradientUnits="userSpaceOnUse" x1="714.5181" y1="1082.1083" x2="1208.0031" y2="1082.1083">
								<stop  offset="0" style="stop-color:#444B8C"/>
								<stop  offset="0.9964" style="stop-color:#26264F"/>
							</linearGradient>
							<polygon style="fill:url(#SVGID_00000134233356447305025150000010398764519238415262_);" points="1208.003,1125.52 
								1207.774,1146.415 996.604,1144.516 830.233,1040.442 714.518,1039.027 714.75,1017.802 837.063,1019.381 1003.363,1123.543 
															"/>
							
								<linearGradient id="SVGID_00000078032367876956473730000012121468596297917858_" gradientUnits="userSpaceOnUse" x1="1023.377" y1="1010.712" x2="1209.3593" y2="1010.712">
								<stop  offset="0" style="stop-color:#444B8C"/>
								<stop  offset="0.9964" style="stop-color:#26264F"/>
							</linearGradient>
							<polygon style="fill:url(#SVGID_00000078032367876956473730000012121468596297917858_);" points="1209.359,1001.53 
								1209.13,1022.425 1023.377,1020.018 1023.607,998.999 							"/>
						</g>
					</g>
					<g>
						
							<linearGradient id="SVGID_00000147925021796117293660000017913033157200272278_" gradientUnits="userSpaceOnUse" x1="2381.7629" y1="916.5923" x2="2475.8958" y2="916.5923">
							<stop  offset="0" style="stop-color:#444B8C"/>
							<stop  offset="0.9964" style="stop-color:#26264F"/>
						</linearGradient>
						<path style="fill:url(#SVGID_00000147925021796117293660000017913033157200272278_);" d="M2381.766,915.79
							c0.284-25.844,21.677-46.475,47.653-45.993c25.928,0.482,46.757,21.832,46.474,47.594
							c-0.283,25.766-21.574,46.398-47.503,45.999C2402.415,962.989,2381.482,941.637,2381.766,915.79z M2455.748,917.049
							c0.162-14.717-11.743-26.907-26.55-27.172c-14.825-0.266-27.026,11.514-27.188,26.257
							c-0.162,14.747,11.776,26.936,26.601,27.176C2443.418,943.549,2455.586,931.769,2455.748,917.049z"/>
						
							<linearGradient id="SVGID_00000175282455362821545040000003675246185483519668_" gradientUnits="userSpaceOnUse" x1="2338.7664" y1="1141.0262" x2="2433.1587" y2="1141.0262">
							<stop  offset="0" style="stop-color:#444B8C"/>
							<stop  offset="0.9964" style="stop-color:#26264F"/>
						</linearGradient>
						<path style="fill:url(#SVGID_00000175282455362821545040000003675246185483519668_);" d="M2338.769,1140.579
							c0.284-25.881,21.737-46.698,47.78-46.411c26.002,0.288,46.89,21.51,46.607,47.31c-0.283,25.797-21.633,46.616-47.636,46.408
							C2359.476,1187.679,2338.485,1166.457,2338.769,1140.579z M2412.955,1141.285c0.162-14.74-11.775-26.855-26.626-27.01
							c-14.861-0.154-27.096,11.731-27.259,26.497c-0.162,14.763,11.81,26.879,26.671,27.007
							C2400.592,1167.907,2412.793,1156.022,2412.955,1141.285z"/>
						
							<linearGradient id="SVGID_00000112608902046215523110000009581674355403907501_" gradientUnits="userSpaceOnUse" x1="2491.6628" y1="1363.9536" x2="2585.0923" y2="1363.9536">
							<stop  offset="0" style="stop-color:#444B8C"/>
							<stop  offset="0.9964" style="stop-color:#26264F"/>
						</linearGradient>
						<path style="fill:url(#SVGID_00000112608902046215523110000009581674355403907501_);" d="M2491.666,1363.854
							c0.283-25.747,21.517-46.614,47.295-46.519c25.738,0.094,46.411,21.05,46.129,46.717
							c-0.282,25.667-21.415,46.534-47.153,46.52C2512.158,1410.558,2491.383,1389.602,2491.666,1363.854z M2565.094,1364.01
							c0.161-14.664-11.654-26.628-26.353-26.672c-14.711-0.044-26.822,11.869-26.983,26.558
							c-0.162,14.69,11.687,26.654,26.398,26.672C2552.855,1390.587,2564.933,1378.673,2565.094,1364.01z"/>
						
							<linearGradient id="SVGID_00000093139976247451812250000003131752547310947490_" gradientUnits="userSpaceOnUse" x1="2207.8337" y1="1385.2435" x2="2303.0378" y2="1385.2435">
							<stop  offset="0" style="stop-color:#444B8C"/>
							<stop  offset="0.9964" style="stop-color:#26264F"/>
						</linearGradient>
						<path style="fill:url(#SVGID_00000093139976247451812250000003131752547310947490_);" d="M2207.837,1385.176
							c0.285-25.987,21.921-47.066,48.189-46.989c26.226,0.078,47.293,21.216,47.009,47.122
							c-0.284,25.908-21.815,46.988-48.042,46.992C2228.723,1432.304,2207.551,1411.166,2207.837,1385.176z M2282.661,1385.28
							c0.162-14.798-11.878-26.866-26.857-26.901c-14.99-0.034-27.328,12-27.491,26.826c-0.163,14.829,11.912,26.897,26.902,26.905
							C2270.193,1412.117,2282.499,1400.083,2282.661,1385.28z"/>
						<g>
							
								<linearGradient id="SVGID_00000013907412336774588940000012668858196352303269_" gradientUnits="userSpaceOnUse" x1="2051.3735" y1="975.9675" x2="2413.429" y2="975.9675">
								<stop  offset="0" style="stop-color:#444B8C"/>
								<stop  offset="0.9964" style="stop-color:#26264F"/>
							</linearGradient>
							<polygon style="fill:url(#SVGID_00000013907412336774588940000012668858196352303269_);" points="2051.374,1033.181 
								2051.596,1012.849 2218.233,1015.12 2403.807,916.525 2413.429,934.258 2223.31,1035.41 							"/>
							
								<linearGradient id="SVGID_00000163075123901810544400000003436977200672305338_" gradientUnits="userSpaceOnUse" x1="2050.0498" y1="1145.0028" x2="2348.9702" y2="1145.0028">
								<stop  offset="0" style="stop-color:#444B8C"/>
								<stop  offset="0.9964" style="stop-color:#26264F"/>
							</linearGradient>
							<polygon style="fill:url(#SVGID_00000163075123901810544400000003436977200672305338_);" points="2050.05,1153.825 
								2050.273,1133.494 2348.97,1136.38 2348.749,1156.512 							"/>
							
								<linearGradient id="SVGID_00000084499166428900351060000009451018716913013641_" gradientUnits="userSpaceOnUse" x1="2048.7263" y1="1314.0156" x2="2501.8257" y2="1314.0156">
								<stop  offset="0" style="stop-color:#444B8C"/>
								<stop  offset="0.9964" style="stop-color:#26264F"/>
							</linearGradient>
							<polygon style="fill:url(#SVGID_00000084499166428900351060000009451018716913013641_);" points="2048.726,1274.471 
								2048.949,1254.141 2246.267,1255.265 2398.049,1353.607 2501.826,1353.862 2501.605,1373.89 2391.867,1373.694 
								2240.023,1275.433 							"/>
							
								<linearGradient id="SVGID_00000098943544101493819970000001802950301048498100_" gradientUnits="userSpaceOnUse" x1="2047.4027" y1="1385.0446" x2="2221.4846" y2="1385.0446">
								<stop  offset="0" style="stop-color:#444B8C"/>
								<stop  offset="0.9964" style="stop-color:#26264F"/>
							</linearGradient>
							<polygon style="fill:url(#SVGID_00000098943544101493819970000001802950301048498100_);" points="2047.403,1395.118 
								2047.626,1374.787 2221.485,1375.087 2221.263,1395.302 							"/>
						</g>
					</g>
				</g>
				<g>
					
						<linearGradient id="SVGID_00000055698826245857253590000008092608630287701671_" gradientUnits="userSpaceOnUse" x1="1142.1956" y1="1195.0574" x2="2070.5229" y2="1195.0574">
						<stop  offset="0" style="stop-color:#444B8C"/>
						<stop  offset="0.9964" style="stop-color:#26264F"/>
					</linearGradient>
					<path style="fill:url(#SVGID_00000055698826245857253590000008092608630287701671_);" d="M1920.848,1641.505l-631.354,4.468
						c-82.033,0.58-148.151-62.831-147.29-141.637l6.788-620.717c0.862-78.81,68.359-141.238,150.368-139.443l631.176,13.808
						c78.31,1.714,140.818,65.103,139.979,141.592l-6.61,602.437C2063.066,1578.5,1999.18,1640.95,1920.848,1641.505z"/>
					
						<linearGradient id="SVGID_00000160161636802199501010000014938640165977228176_" gradientUnits="userSpaceOnUse" x1="1162.9187" y1="1198.647" x2="2091.2683" y2="1198.647">
						<stop  offset="0" style="stop-color:#AA80F9"/>
						<stop  offset="0.9964" style="stop-color:#6165D7"/>
					</linearGradient>
					<path style="fill:url(#SVGID_00000160161636802199501010000014938640165977228176_);" d="M1941.588,1645.064l-631.368,4.503
						c-82.035,0.585-148.155-62.824-147.293-141.631l6.789-620.723c0.862-78.811,68.361-141.243,150.372-139.453l631.189,13.774
						c78.311,1.709,140.822,65.096,139.983,141.586l-6.61,602.445C2083.811,1582.051,2019.922,1644.506,1941.588,1645.064z"/>
					<path style="opacity:0.48;fill:#FFFFFF;" d="M1668.725,1363.8c-76.033-100.646,2.381-167.867-78.492-282.235
						c-97.281-137.573-258.645-108.875-320.892-233.035c-13.733-27.393-19.534-56.285-20.143-85.158
						c-46.739,23.143-78.89,69.637-79.483,123.841l-6.788,620.723c-0.862,78.807,65.259,142.216,147.294,141.631l631.368-4.503
						c62.763-0.448,116.151-40.667,135.362-95.91C1967.965,1429.437,1774.321,1503.579,1668.725,1363.8z"/>
				</g>
				<g>
					
						<linearGradient id="SVGID_00000081620344973669797280000013487368727732279703_" gradientUnits="userSpaceOnUse" x1="1311.8203" y1="1205.4792" x2="1920.457" y2="1205.4792">
						<stop  offset="0" style="stop-color:#444B8C"/>
						<stop  offset="0.9964" style="stop-color:#26264F"/>
					</linearGradient>
					<path style="fill:url(#SVGID_00000081620344973669797280000013487368727732279703_);" d="M1824.783,1501.019l-420.697,1.001
						c-51.431,0.122-92.806-40.212-92.26-90.09l4.532-414.196c0.546-49.88,42.798-89.628,94.219-88.782l420.62,6.921
						c49.895,0.821,89.791,41.147,89.255,90.073l-4.455,406.274C1915.46,1461.144,1874.687,1500.9,1824.783,1501.019z"/>
					
						<linearGradient id="SVGID_00000111165071805629181990000018026010948953556139_" gradientUnits="userSpaceOnUse" x1="1796.4866" y1="1738.3949" x2="1612.309" y2="826.4866" gradientTransform="matrix(0.9999 0.011 -0.011 0.9999 -46.4068 -32.0924)">
						<stop  offset="0.0036" style="stop-color:#E38DDD"/>
						<stop  offset="1" style="stop-color:#9571F6"/>
					</linearGradient>
					<path style="fill:url(#SVGID_00000111165071805629181990000018026010948953556139_);" d="M1836.83,1489.017l-414.718,0.835
						c-50.701,0.102-91.49-39.409-90.956-88.251l4.438-405.594c0.535-48.844,42.183-87.751,92.874-86.905l414.642,6.924
						c49.186,0.821,88.518,40.324,87.993,88.233l-4.363,397.835C1926.216,1450.001,1886.024,1488.918,1836.83,1489.017z"/>
					<path style="opacity:0.48;fill:#FFFFFF;" d="M1668.725,1363.801c-76.033-100.646,2.381-167.867-78.492-282.236
						c-63.886-90.346-155.315-108.989-228.293-146.315c-16.04,15.633-26.086,37.002-26.346,60.757l-4.438,405.594
						c-0.535,48.842,40.255,88.353,90.956,88.251l414.718-0.835c22.012-0.044,42.183-7.896,57.837-20.8
						C1811.897,1452.869,1726.888,1440.792,1668.725,1363.801z"/>
				</g>
			</g>
			<g>
				
					<linearGradient id="SVGID_00000145042776982683605720000007421164728139471027_" gradientUnits="userSpaceOnUse" x1="1652.2719" y1="1552.1566" x2="1628.5529" y2="1295.373">
					<stop  offset="0" style="stop-color:#311944"/>
					<stop  offset="1" style="stop-color:#893976"/>
				</linearGradient>
				<path style="fill:url(#SVGID_00000145042776982683605720000007421164728139471027_);" d="M1826.102,1098.697l-400.225-7.087
					c-20.437-0.362-37.102,16.443-37.102,37.536v211.879c0,86.035,67.422,152.611,148.621,148.795l187.542-8.815
					c74.359-3.495,133.286-70.79,133.286-150.385V1134.6C1858.223,1115.085,1843.886,1099.012,1826.102,1098.697z
					 M1670.548,1378.864l-76.33,2.254l20.374-92.737c-18.316-7.418-31.348-26.236-31.348-48.457
					c0-29.038,22.208-52.524,49.381-52.458c26.93,0.065,48.585,23.277,48.585,51.847c0,21.863-12.67,40.709-30.66,48.555
					L1670.548,1378.864z"/>
				
					<linearGradient id="SVGID_00000054258237142589950110000017324725514107557783_" gradientUnits="userSpaceOnUse" x1="1873.5116" y1="887.4948" x2="1332.7224" y2="1781.5422">
					<stop  offset="0" style="stop-color:#FFC444"/>
					<stop  offset="0.9964" style="stop-color:#F36F56"/>
				</linearGradient>
				<path style="fill:url(#SVGID_00000054258237142589950110000017324725514107557783_);" d="M1857.702,1099.2l-398.115-7.052
					c-20.327-0.36-36.903,16.401-36.903,37.437v211.309c0,85.804,67.061,152.204,147.827,148.401l186.553-8.784
					c73.972-3.483,132.593-70.6,132.593-149.99v-195.512C1889.657,1115.545,1875.395,1099.513,1857.702,1099.2z M1702.961,1378.637
					l-75.928,2.246l20.266-92.491c-18.22-7.398-31.183-26.166-31.183-48.329c0-28.961,22.091-52.385,49.12-52.32
					c26.789,0.064,48.33,23.215,48.33,51.71c0,21.806-12.604,40.602-30.499,48.427L1702.961,1378.637z"/>
				<path style="fill:none;" d="M1647.3,1288.392l-20.267,92.491l75.928-2.246l-18.892-86.188
					c-25.923-19.79-49.907-36.926-67.339-60.633c-0.4,2.688-0.614,5.441-0.614,8.247
					C1616.116,1262.226,1629.08,1280.994,1647.3,1288.392z"/>
				<path style="fill:none;" d="M1684.069,1292.449l-1.002-4.569c17.896-7.824,30.499-26.621,30.499-48.427
					c0-28.495-21.541-51.646-48.33-51.71c-24.405-0.059-44.779,19.035-48.506,44.073
					C1634.162,1255.522,1658.146,1272.658,1684.069,1292.449z"/>
				<g>
					
						<linearGradient id="SVGID_00000170966609787045982000000009521997583693763712_" gradientUnits="userSpaceOnUse" x1="-1467.2615" y1="-3341.6001" x2="-1430.7026" y2="-3477.3896" gradientTransform="matrix(0.6298 -0.7768 0.7768 0.6298 5180.2578 2021.5104)">
						<stop  offset="0" style="stop-color:#311944"/>
						<stop  offset="1" style="stop-color:#893976"/>
					</linearGradient>
					<path style="fill:url(#SVGID_00000170966609787045982000000009521997583693763712_);" d="M1707.403,796.168l-21.105,25.817
						c-2.7,3.302-7.722,3.514-11.215,0.467L1610.339,766c-46.461-40.51-114.648-38.633-152.52,5.089l-43.307,49.996
						c-39.178,45.23-31.449,116.106,17.495,157.348l68.18,57.451c3.679,3.1,4.296,8.503,1.378,12.073l-23.061,28.209
						c-2.95,3.609-8.354,4.018-12.069,0.909l-68.85-57.633c-73.483-61.511-84.736-167.559-25.66-234.727l43.833-49.837
						c56.659-64.419,157.65-66.403,226.07-6.387l64.144,56.266C1709.433,787.793,1710.074,792.9,1707.403,796.168z"/>
					
						<linearGradient id="SVGID_00000083067552474012494510000007800970789895240883_" gradientUnits="userSpaceOnUse" x1="-1266.0558" y1="-3738.4473" x2="-1821.2469" y2="-2820.5901" gradientTransform="matrix(0.6298 -0.7768 0.7768 0.6298 5180.2578 2021.5104)">
						<stop  offset="0" style="stop-color:#FFC444"/>
						<stop  offset="0.9964" style="stop-color:#F36F56"/>
					</linearGradient>
					<path style="fill:url(#SVGID_00000083067552474012494510000007800970789895240883_);" d="M1727.714,771.159l-21.035,25.731
						c-2.691,3.291-7.696,3.492-11.179,0.443l-64.528-56.489c-46.306-40.537-114.264-38.801-152.009,4.771l-43.161,49.823
						c-39.046,45.074-31.343,115.845,17.435,157.118l67.95,57.495c3.666,3.102,4.281,8.497,1.373,12.055l-22.983,28.114
						c-2.941,3.597-8.327,3.994-12.029,0.882l-68.618-57.678c-73.234-61.558-84.448-167.448-25.573-234.381l43.684-49.664
						c56.468-64.196,157.121-65.974,225.313-5.919l63.931,56.303C1729.737,762.802,1730.377,767.902,1727.714,771.159z"/>
					<path style="opacity:0.48;fill:#FFFFFF;" d="M1418.931,993.424l68.618,57.678c3.703,3.112,9.089,2.715,12.029-0.882
						l22.983-28.114c2.908-3.558,2.293-8.952-1.374-12.055l-67.95-57.495c-48.778-41.272-56.481-112.044-17.435-157.118l5.398-6.231
						c-19.423-7.495-39.649-11.969-60.154-14.099C1336.586,842.043,1351.369,936.633,1418.931,993.424z"/>
				</g>
				<path style="opacity:0.48;fill:#FFFFFF;" d="M1684.069,1292.449l18.892,86.188l-75.928,2.246l20.267-92.491
					c-18.22-7.398-31.183-26.166-31.183-48.329c0-2.806,0.214-5.559,0.614-8.247c-10.074-13.7-17.953-29.577-22.732-49.416
					c-7.983-33.141-3.453-61.217,5.875-87.766l-140.286-2.485c-20.328-0.36-36.903,16.4-36.903,37.437v211.309
					c0,85.804,67.061,152.204,147.828,148.401l186.553-8.784c19.341-0.911,37.621-6.175,54.073-14.846
					c-6.447-20.679-15.029-41.618-26.348-62.292C1754.661,1348.342,1717.75,1318.161,1684.069,1292.449z"/>
			</g>
		</g>
		<g>
			<g>
				
					<linearGradient id="SVGID_00000070838239360911465210000017157164369736284561_" gradientUnits="userSpaceOnUse" x1="650.6313" y1="2956.7207" x2="709.3894" y2="2956.7207" gradientTransform="matrix(-1 0 0 1 3539.0615 0)">
					<stop  offset="0" style="stop-color:#FFC444"/>
					<stop  offset="0.9964" style="stop-color:#F36F56"/>
				</linearGradient>
				<path style="fill:url(#SVGID_00000070838239360911465210000017157164369736284561_);" d="M2829.672,2938.874
					c1.172,0.774,22.53,29.673,32.19,48.564l26.568-14.272c0,0-14.977-5.332-22.504-34.292
					C2858.398,2909.916,2829.672,2938.874,2829.672,2938.874z"/>
				
					<linearGradient id="SVGID_00000056389752924710091520000015397333586636487568_" gradientUnits="userSpaceOnUse" x1="579.6617" y1="2973.3594" x2="684.0279" y2="2973.3594" gradientTransform="matrix(-1 0 0 1 3539.0615 0)">
					<stop  offset="0" style="stop-color:#444B8C"/>
					<stop  offset="0.9964" style="stop-color:#26264F"/>
				</linearGradient>
				<path style="fill:url(#SVGID_00000056389752924710091520000015397333586636487568_);" d="M2899.513,3004.732
					c0,0-16.653,5.634-23.584,6.139l-0.699,0.051c-3.921,0.286-7.72-1.437-10.069-4.588c-4.095-5.494-10.012-13.81-10.125-16.135
					c-0.172-3.557,9.442-10.862,18.012-14.024c8.57-3.162,10.578-7.402,26.465-20.093c15.887-12.693,42.73-27.762,55.298-16.161
					C2967.378,2951.522,2955.771,2980.422,2899.513,3004.732z"/>
				
					<linearGradient id="SVGID_00000129887616103986098870000001477520891014965652_" gradientUnits="userSpaceOnUse" x1="646.4226" y1="2935.3601" x2="634.8759" y2="2962.05" gradientTransform="matrix(-1 0 0 1 3539.0615 0)">
					<stop  offset="0" style="stop-color:#444B8C"/>
					<stop  offset="0.9964" style="stop-color:#26264F"/>
				</linearGradient>
				<path style="fill:url(#SVGID_00000129887616103986098870000001477520891014965652_);" d="M2945.602,2941.754
					c-13.803,5.495-17.966,21.026-41.913,36.787c-13.593,8.945-30.35,17.157-42.305,22.591c-3.223-4.561-6.268-9.275-6.348-10.934
					c-0.172-3.558,9.442-10.861,18.012-14.023c8.57-3.165,10.578-7.403,26.465-20.095c15.887-12.691,42.73-27.76,55.297-16.16
					c3.203,2.955,4.824,7.039,4.549,11.878C2956.876,2945.097,2952.628,2938.956,2945.602,2941.754z"/>
				
					<linearGradient id="SVGID_00000020382787226688210940000010988011279546858942_" gradientUnits="userSpaceOnUse" x1="921.3525" y1="2363.3179" x2="601.995" y2="2917.4976" gradientTransform="matrix(-1 0 0 1 3539.0615 0)">
					<stop  offset="0" style="stop-color:#444B8C"/>
					<stop  offset="0.9964" style="stop-color:#26264F"/>
				</linearGradient>
				<path style="fill:url(#SVGID_00000020382787226688210940000010988011279546858942_);" d="M2671.583,2157.878
					c42.668,85.853,86.159,189.054,122.107,308.624c53.552,178.121,74.065,338.351,80.623,465.517
					c-15.245,6.293-30.49,12.591-45.734,18.885c-29.954-19.089-73.901-52.705-106.306-107.259
					c-53.117-89.417-15.622-134.759-58.795-242.308c-41.852-104.262-94.891-106.004-140.838-219.371
					c-27.408-67.628-33.677-129.04-34.888-169.072C2549.029,2194.556,2610.306,2176.217,2671.583,2157.878z"/>
				
					<linearGradient id="SVGID_00000113323823375428119120000000787797988139235003_" gradientUnits="userSpaceOnUse" x1="958.2118" y1="2384.5596" x2="638.8544" y2="2938.7388" gradientTransform="matrix(-1 0 0 1 3539.0615 0)">
					<stop  offset="0" style="stop-color:#AA80F9"/>
					<stop  offset="0.9964" style="stop-color:#6165D7"/>
				</linearGradient>
				<path style="opacity:0.3;fill:url(#SVGID_00000113323823375428119120000000787797988139235003_);" d="M2587.827,2182.942
					c-16.521,42.732-15.201,74.854-8.831,98.386c21.207,78.337,104.872,86.832,124.792,174.438
					c13.367,58.79-20.488,71.791-2.684,132.843c18.892,64.785,60.454,61.943,83.194,128.816
					c17.876,52.567-1.173,73.839,6.709,147.603c2.728,25.529,7.787,48.759,13.877,69.472
					c-26.741-20.088-57.999-49.419-82.611-90.854c-53.117-89.417-15.622-134.759-58.795-242.308
					c-41.852-104.262-94.891-106.004-140.838-219.371c-27.408-67.628-33.677-129.04-34.888-169.072
					C2521.111,2202.909,2554.469,2192.928,2587.827,2182.942z"/>
				
					<linearGradient id="SVGID_00000139992630546455899420000007938096565968002727_" gradientUnits="userSpaceOnUse" x1="1507.7416" y1="2851.2485" x2="1556.0398" y2="2851.2485" gradientTransform="matrix(-1 0 0 1 3539.0615 0)">
					<stop  offset="0" style="stop-color:#444B8C"/>
					<stop  offset="0.9964" style="stop-color:#26264F"/>
				</linearGradient>
				<path style="fill:url(#SVGID_00000139992630546455899420000007938096565968002727_);" d="M2000.856,2787.202
					c0,0-11.285,4.242-16.292,20.01c-5.008,15.764,3.186,81.297,10.316,97.399c7.127,16.102,28.133,12.261,34.259,0
					c6.125-12.258-2.587-98.994-2.587-98.994L2000.856,2787.202z"/>
				
					<linearGradient id="SVGID_00000094596017413352477470000001713526075458771329_" gradientUnits="userSpaceOnUse" x1="1319.859" y1="2243.3638" x2="1106.5074" y2="2722.3997" gradientTransform="matrix(-1 0 0 1 3539.0615 0)">
					<stop  offset="0" style="stop-color:#444B8C"/>
					<stop  offset="0.9964" style="stop-color:#26264F"/>
				</linearGradient>
				<path style="fill:url(#SVGID_00000094596017413352477470000001713526075458771329_);" d="M2664.874,2196.792
					c-49.633,67.305-83.909,125.636-106.005,166.387c-46.687,86.1-57.368,127.594-112.399,207.613
					c-50.961,74.098-84.593,100.74-98.325,110.965c-33.122,24.66-60.459,35.715-130.813,62.324
					c-61.478,23.25-126.589,47.33-195.156,71.986c-12.117,1.363-17.208-3.869-20.539-14.857
					c1.126-52.372,16.888-84.346,29.961-103.269c27.9-40.389,56.857-40.593,143.206-101.774
					c46.044-32.62,69.461-49.477,88.867-76.158c9.335-12.834,24.625-36.682,48.845-126.698
					c9.925-36.885,21.858-86.772,31.917-147.081C2451.247,2229.751,2558.061,2213.272,2664.874,2196.792z"/>
				
					<linearGradient id="SVGID_00000042722085730707422460000012265025767390074038_" gradientUnits="userSpaceOnUse" x1="560.8873" y1="1383.6156" x2="552.8363" y2="1549.6685" gradientTransform="matrix(-1 0 0 1 3539.0615 0)">
					<stop  offset="0" style="stop-color:#FFC444"/>
					<stop  offset="0.9964" style="stop-color:#F36F56"/>
				</linearGradient>
				<path style="fill:url(#SVGID_00000042722085730707422460000012265025767390074038_);" d="M2953.911,1413.936
					c0,0-8.5-17.494,11.463-33.217c19.964-15.723,58.106-37.335,55.086-67.527c0,0-20.611,34.669-33.926,31.542
					c-13.315-3.128-22.284,4.523-22.284,4.523s-31.145,17.73-30.238,51.718c0.906,33.988,0.906,33.988,0.906,33.988
					L2953.911,1413.936z"/>
				
					<linearGradient id="SVGID_00000087385623637847354200000007690030056341178283_" gradientUnits="userSpaceOnUse" x1="1191.9487" y1="1414.2128" x2="1183.8978" y2="1580.2642" gradientTransform="matrix(-1 0 0 1 3539.0615 0)">
					<stop  offset="0" style="stop-color:#FFC444"/>
					<stop  offset="0.9964" style="stop-color:#F36F56"/>
				</linearGradient>
				<path style="fill:url(#SVGID_00000087385623637847354200000007690030056341178283_);" d="M2350.085,1429.933
					c0,0,15.019-8.275,19.385-18.782c4.368-10.507,4.427-26.853-10.437-35.443c-14.864-8.593-18.102-17.317-23.464-24.296
					c-5.36-6.98-17.665-9.416-17.665-9.416s22.063,40.695,24.717,47.375c2.653,6.683,13.359,7.593,0.037,26.695L2350.085,1429.933z"
					/>
				
					<linearGradient id="SVGID_00000133500275554564046670000010098554719257508225_" gradientUnits="userSpaceOnUse" x1="3048.9739" y1="1509.3811" x2="2240.9963" y2="2275.0195">
					<stop  offset="0" style="stop-color:#444B8C"/>
					<stop  offset="0.9964" style="stop-color:#26264F"/>
				</linearGradient>
				<path style="fill:url(#SVGID_00000133500275554564046670000010098554719257508225_);" d="M2963.434,1406.078
					c-11.684-1.879-23.367-3.754-35.05-5.633c-10.019,14.946-24.013,38.651-34.408,69.908
					c-23.483,70.591-5.474,110.123-19.44,152.803c-11.439,34.96-46.457,78.537-153.976,110.702
					c0.78,68.28,1.56,136.561,2.339,204.841c44.076-6.546,115.036-24.027,182.835-76.025c39.275-30.12,81.834-62.761,97.619-118.753
					c19.918-70.654-9.587-154.412-21.134-187.186c-6.608-18.76-19.433-50.563-21.586-96.007
					C2959.548,1437.83,2961.521,1418.831,2963.434,1406.078z"/>
				
					<linearGradient id="SVGID_00000170271741277110030560000018383501428137667759_" gradientUnits="userSpaceOnUse" x1="3057.0417" y1="1517.8949" x2="2249.064" y2="2283.5337">
					<stop  offset="0" style="stop-color:#444B8C"/>
					<stop  offset="0.9964" style="stop-color:#26264F"/>
				</linearGradient>
				<path style="fill:url(#SVGID_00000170271741277110030560000018383501428137667759_);" d="M2730.632,1730.741
					c-36.991,8.456-90.961,18.549-150.843,10.34c-104.194-14.289-178.809-55.898-217.902-87.358
					c-42.695,108.376-43.588,188.711-36.069,242.697c5.541,39.778,13.96,53.122,14.717,97.632
					c1.275,74.956-21.761,86.317-32.591,183.724c-8.915,80.196,3.897,97.667-16.222,131.052
					c-14.437,23.956-33.606,35.818-45.005,73.262c-3.774,12.398-13.165,43.253-3.181,53.249
					c15.997,16.024,55.711-47.525,129.823-56.194c39.526-4.617,45.573,11.43,86.548,2.34c44.722-9.915,41.622-29.944,83.529-39.801
					c30.748-7.234,45.645,0.433,77.098,1.325c8.052,0.231,5.141-0.288,40.649-2.501c79.5-4.951,81.841-2.006,87.17-7.205
					c12.025-11.73,5.892-32.365-29.359-173.764c-5.247-21.039-8.8-35.68-9.304-56.43c-0.797-32.856,8.029-49.669,13.554-89.689
					c2.79-20.209,5.442-45.058,7.38-77.983C2733.29,1890.137,2736.808,1811.323,2730.632,1730.741z"/>
				
					<linearGradient id="SVGID_00000119805959308635304730000000248983631474212508_" gradientUnits="userSpaceOnUse" x1="2787.8135" y1="1233.7798" x2="1979.8344" y2="1999.4198">
					<stop  offset="0" style="stop-color:#444B8C"/>
					<stop  offset="0.9964" style="stop-color:#26264F"/>
				</linearGradient>
				<path style="fill:url(#SVGID_00000119805959308635304730000000248983631474212508_);" d="M2369.335,1427.919
					c-8.386-9.392-16.773-18.786-25.159-28.179c-35.305,19.031-89.26,53.743-138.19,113.116
					c-36.614,44.426-68.936,83.644-72.416,140.551c-4.988,81.572,52.768,142.626,79.656,171.053
					c52.991,56.018,114.108,79.441,149.066,89.539c67.7-150.26,57.641-208.944,33.677-234.002
					c-13.339-13.948-31.332-17.839-47.828-43.718c-22.95-36.006-18.881-76.736-16.302-102.553
					C2336.582,1486.234,2355.161,1449.965,2369.335,1427.919z"/>
				<g>
					
						<linearGradient id="SVGID_00000099661970147024825330000004643937907941097384_" gradientUnits="userSpaceOnUse" x1="5030.6528" y1="-2351.5173" x2="5038.02" y2="-2547.7603" gradientTransform="matrix(0.9547 0.2974 -0.2594 0.8326 -2869.6292 2266.1592)">
						<stop  offset="0" style="stop-color:#FFC444"/>
						<stop  offset="0.9964" style="stop-color:#F36F56"/>
					</linearGradient>
					<path style="fill:url(#SVGID_00000099661970147024825330000004643937907941097384_);" d="M2567.839,1673.582
						c1.581,9.176,2.053,28.69-11.874,42.792c-12.195,12.347-30.25,14.677-37.485,15.673c-17.487,2.409-26.736-1.84-27.763,0.719
						c-2.276,5.665,39.317,35.873,88.592,39.064c28.96,1.877,58.474-5.715,58.473-14.006c-0.002-9.301-37.168-11.892-45.69-31.987
						c-5.445-12.841,3.212-27.157,12.447-38.062C2596.854,1678.737,2575.544,1682.64,2567.839,1673.582z"/>
					<g>
						
							<linearGradient id="SVGID_00000054945562641840666420000013756818407172307633_" gradientUnits="userSpaceOnUse" x1="2654.8589" y1="1604.7963" x2="2546.0647" y2="1714.7664">
							<stop  offset="0" style="stop-color:#444B8C"/>
							<stop  offset="0.9964" style="stop-color:#26264F"/>
						</linearGradient>
						<path style="fill:url(#SVGID_00000054945562641840666420000013756818407172307633_);" d="M2653.485,1656.197
							c0,34.824-22.936,72.401-51.228,72.401c-28.292,0-58.702-37.577-58.702-72.401c0-34.824,22.935-53.709,51.228-53.709
							C2623.075,1602.489,2653.485,1621.373,2653.485,1656.197z"/>
						
							<linearGradient id="SVGID_00000054975665267522898630000012537447276694195354_" gradientUnits="userSpaceOnUse" x1="2617.5442" y1="1664.8634" x2="2621.5208" y2="1727.9341">
							<stop  offset="0" style="stop-color:#FFC444"/>
							<stop  offset="0.9964" style="stop-color:#F36F56"/>
						</linearGradient>
						<path style="fill:url(#SVGID_00000054975665267522898630000012537447276694195354_);" d="M2642.295,1661.553
							c-11.228,2.805-37.201,1.885-48.32,1.37c-2.806-0.13-5.17,1.552-5.17,3.675v9.583c0,1.889,1.905,3.475,4.393,3.666
							c33.203,2.553,46.783,0.071,51.538-1.354c1.35-0.404,2.214-1.403,2.214-2.5v-11.866
							C2646.951,1662.295,2644.597,1660.978,2642.295,1661.553z"/>
						
							<linearGradient id="SVGID_00000158750776344121114730000005351387403719282338_" gradientUnits="userSpaceOnUse" x1="2665.3718" y1="1615.1971" x2="2556.5771" y2="1725.1677">
							<stop  offset="0" style="stop-color:#444B8C"/>
							<stop  offset="0.9964" style="stop-color:#26264F"/>
						</linearGradient>
						<path style="fill:url(#SVGID_00000158750776344121114730000005351387403719282338_);" d="M2545.34,1671.184
							c0,0,13.048,34.585-4.831,46.688c-17.879,12.103,16.466,25.876,37.637,28.228c21.171,2.352,29.921-7.645,29.921-7.645
							s-4.852-8.273-3.861-15.604C2605.198,1715.52,2545.34,1671.184,2545.34,1671.184z"/>
					</g>
				</g>
				
					<linearGradient id="SVGID_00000045578282203196894200000008425650918620931751_" gradientUnits="userSpaceOnUse" x1="528.9911" y1="2035.4011" x2="1299.9775" y2="2035.4011" gradientTransform="matrix(-1 0 0 1 3539.0615 0)">
					<stop  offset="0" style="stop-color:#AA80F9"/>
					<stop  offset="0.9964" style="stop-color:#6165D7"/>
				</linearGradient>
				<path style="opacity:0.15;fill:url(#SVGID_00000045578282203196894200000008425650918620931751_);" d="M2424.359,2338.208
					c28.258-16.646,24.023-30.51,53.122-55.087c61.724-52.137,123.439-21.95,143.625-57.058
					c23.024-40.044-51.521-86.894-32.786-156.513c11.225-41.715,41.622-38.406,66.233-97.292
					c23.705-56.713,3.016-77.752,25.578-100.34c36.641-36.695,100.048,13.06,159.365-29.513
					c17.491-12.554,12.646-16.358,49.187-60.99c57.109-69.756,81.135-75.359,100.341-108.209c6.197-10.6,11.673-23.834,14.901-40.32
					c6.79,34.643,9.711,74.565-0.572,111.04c-15.784,55.987-58.344,88.628-97.619,118.751
					c-64.045,49.116-130.879,67.422-175.24,74.818c-1.926,31.882-4.519,56.149-7.249,75.925
					c-5.525,40.02-14.351,56.833-13.554,89.689c0.504,20.75,4.058,35.391,9.304,56.43c35.251,141.399,41.384,162.034,29.359,173.764
					c-5.329,5.199-7.669,2.254-87.17,7.205c-35.509,2.214-32.597,2.732-40.649,2.501c-31.453-0.893-46.349-8.559-77.098-1.325
					c-41.908,9.856-38.807,29.886-83.529,39.801c-40.975,9.09-47.022-6.957-86.548-2.34
					c-74.112,8.669-113.827,72.218-129.823,56.194c-9.984-9.995-0.593-40.85,3.181-53.249c0.308-1.015,0.644-1.937,0.963-2.911
					c20.158-15.281,38.794-22.244,54.696-25.23C2344.955,2345.96,2380.714,2363.921,2424.359,2338.208z"/>
			</g>
			<g>
				
					<linearGradient id="SVGID_00000183244635459562365180000009805140040734465708_" gradientUnits="userSpaceOnUse" x1="1115.0941" y1="1413.0366" x2="843.4802" y2="1151.2994" gradientTransform="matrix(-1 0 0 1 3539.0615 0)">
					<stop  offset="0" style="stop-color:#AA80F9"/>
					<stop  offset="0.9964" style="stop-color:#6165D7"/>
				</linearGradient>
				<path style="fill:url(#SVGID_00000183244635459562365180000009805140040734465708_);" d="M2982.418,1349.307l-67.362,47.851
					l-512.493-438.62l159.513-18.819c4.135-0.488,8.31-0.564,12.462-0.224l409.664,33.464c21.02,1.717,36.813,19.918,35.551,40.969
					l-18.024,300.573C3000.894,1328.429,2993.793,1341.226,2982.418,1349.307z"/>
				
					<linearGradient id="SVGID_00000001634157135576261330000018169088925620629122_" gradientUnits="userSpaceOnUse" x1="857.3408" y1="1108.1469" x2="1131.4242" y2="1631.6208" gradientTransform="matrix(-1 0 0 1 3539.0615 0)">
					<stop  offset="0" style="stop-color:#AA80F9"/>
					<stop  offset="0.9964" style="stop-color:#6165D7"/>
				</linearGradient>
				<path style="fill:url(#SVGID_00000001634157135576261330000018169088925620629122_);" d="M2962.671,1045.42l-29.579,318.813
					c-2.358,25.418-24.422,44.406-49.909,42.95l-503.008-28.744c-26.019-1.487-45.959-23.697-44.643-49.724l16.458-325.276
					c1.339-26.474,24.126-46.704,50.573-44.901l516.131,35.207C2945.268,995.557,2965.132,1018.9,2962.671,1045.42z"/>
				
					<linearGradient id="SVGID_00000183933137255736483260000012746533762974660013_" gradientUnits="userSpaceOnUse" x1="2591.9119" y1="920.4731" x2="2851.1301" y2="920.4731">
					<stop  offset="0" style="stop-color:#444B8C"/>
					<stop  offset="0.9964" style="stop-color:#26264F"/>
				</linearGradient>
				<path style="fill:url(#SVGID_00000183933137255736483260000012746533762974660013_);" d="M2822.411,984.456
					c9.834,0,18.487-7.142,20.071-17.166l8.101-51.207c1.982-12.547-1.48-25.392-9.497-35.246
					c-8.016-9.854-19.892-15.854-32.578-16.461l-164.21-7.847c-23.245-0.943-43.763,16.152-46.569,39.328l-5.668,46.778
					c-1.351,11.156,6.596,21.288,17.747,22.64c11.22,1.379,21.289-6.586,22.645-17.752l5.666-46.778
					c0.254-2.096,2.146-3.854,4.227-3.566l164.215,7.847c1.505,0.069,2.445,0.854,2.965,1.49c0.527,0.645,1.097,1.729,0.864,3.209
					l-8.1,51.208c-1.753,11.096,5.821,21.516,16.917,23.275C2820.286,984.376,2821.353,984.456,2822.411,984.456z"/>
			</g>
		</g>
		<g>
			
				<linearGradient id="SVGID_00000132065564879063881460000011198360993792596661_" gradientUnits="userSpaceOnUse" x1="1795.7416" y1="1876.741" x2="1516.0509" y2="2136.2937">
				<stop  offset="0" style="stop-color:#FFC444"/>
				<stop  offset="0.9964" style="stop-color:#F36F56"/>
			</linearGradient>
			<path style="fill:url(#SVGID_00000132065564879063881460000011198360993792596661_);" d="M920.362,1853.807v1048.375
				l710.654-47.732c16.139-0.98,28.657-12.681,28.657-26.788V1891.99c0-14.536-13.265-26.433-29.93-26.842L920.362,1853.807z"/>
			<path style="fill:#D8DEE8;" d="M884.264,1884.808v986.371l713.896-45.243c15.185-0.922,26.962-11.931,26.962-25.203v-880.334
				c0-13.676-12.481-24.87-28.16-25.254L884.264,1884.808z"/>
			
				<linearGradient id="SVGID_00000140712910972284194970000002503625759527302808_" gradientUnits="userSpaceOnUse" x1="1817.8893" y1="1884.975" x2="1536.3676" y2="2146.2268">
				<stop  offset="0" style="stop-color:#FFC444"/>
				<stop  offset="0.9964" style="stop-color:#F36F56"/>
			</linearGradient>
			<path style="fill:url(#SVGID_00000140712910972284194970000002503625759527302808_);" d="M1707.79,2121.014h-76.568v-198.408
				h76.568c2.623,0,4.75,2.127,4.75,4.75v188.908C1712.54,2118.887,1710.413,2121.014,1707.79,2121.014z"/>
			<g>
				<path style="fill:#FFFFFF;" d="M1565.6,2194.696l5.932,30.385c-13.231,5.242-25.858,11.528-37.728,18.849l-20.268-23.273
					c-5.53-6.35-15.176-6.944-21.547-1.328l-39.89,35.154c-6.385,5.628-7.089,15.356-1.567,21.729l20.444,23.596
					c-8.792,11.049-16.647,22.837-23.448,35.245l-29.609-10.068c-7.984-2.715-16.715,1.643-19.503,9.736l-17.473,50.705
					c-2.799,8.123,1.413,16.927,9.414,19.66l29.71,10.152c-2.206,13.871-3.188,28.062-2.976,42.429l-31.083,6.339
					c-8.344,1.702-13.832,9.929-12.256,18.381l9.876,52.967c1.583,8.488,9.651,13.989,18.02,12.282l31.175-6.358
					c5.037,13.482,11.132,26.354,18.26,38.466l-23.971,21.307c-6.465,5.745-7.184,15.702-1.604,22.241l34.962,40.964
					c5.602,6.563,15.394,7.208,21.866,1.437l23.97-21.368c10.984,9.035,22.738,17.071,35.11,24.043l-10.315,30.655
					c-2.793,8.301,1.52,17.313,9.637,20.125l50.814,17.61c8.134,2.82,16.982-1.642,19.758-9.962l10.15-30.42
					c13.937,2.219,28.196,3.145,42.628,2.832l6.147,31.489c1.683,8.62,9.891,14.217,18.333,12.495l52.791-10.766
					c8.441-1.721,13.899-10.106,12.191-18.72l-6.189-31.22c13.531-5.315,26.419-11.737,38.528-19.22l20.563,23.733
					c5.709,6.59,15.563,7.238,22.002,1.446l40.233-36.178c6.426-5.778,6.997-15.786,1.28-22.351l-20.497-23.535
					c8.945-11.378,16.87-23.539,23.708-36.318l29.183,9.972c8.156,2.788,16.949-1.648,19.635-9.901l16.77-51.514
					c2.677-8.223-1.755-17.129-9.893-19.896l-28.904-9.828c2.069-14.199,2.844-28.71,2.383-43.372l29.813-6.08
					c8.369-1.707,13.735-9.948,11.985-18.401l-10.922-52.753c-1.743-8.418-9.921-13.858-18.265-12.156l-29.725,6.062
					c-5.328-13.568-11.716-26.49-19.155-38.603l22.577-20.128c6.349-5.659,6.908-15.437,1.251-21.835l-35.306-39.942
					c-5.635-6.375-15.341-6.973-21.682-1.337l-22.721,20.195c-11.13-8.859-22.996-16.732-35.475-23.5l9.649-28.917
					c2.685-8.047-1.644-16.749-9.666-19.438l-50.111-16.8c-8.004-2.684-16.68,1.647-19.382,9.675l-9.753,28.985
					c-13.791-2.041-27.885-2.838-42.143-2.402l-5.972-30.125c-1.644-8.29-9.683-13.638-17.957-11.951l-51.744,10.552
					C1569.376,2178.313,1563.981,2186.402,1565.6,2194.696z M1506.556,2482.768c-16.285-85.197,38.629-167.763,122.565-184.88
					c83.935-17.117,165.85,37.545,183.054,122.554c17.309,85.524-37.374,169.264-122.231,186.569
					C1605.085,2624.317,1522.94,2568.481,1506.556,2482.768z"/>
				<path style="fill:#FFFFFF;" d="M1834.44,2058.712l1.744,8.936c-3.891,1.542-7.605,3.39-11.095,5.543l-5.961-6.844
					c-1.626-1.867-4.463-2.042-6.337-0.391l-11.731,10.339c-1.878,1.655-2.085,4.516-0.461,6.39l6.012,6.939
					c-2.586,3.25-4.896,6.716-6.896,10.365l-8.708-2.961c-2.348-0.798-4.916,0.483-5.736,2.864l-5.138,14.912
					c-0.823,2.389,0.415,4.978,2.768,5.781l8.737,2.986c-0.649,4.079-0.938,8.253-0.875,12.478l-9.141,1.864
					c-2.454,0.501-4.068,2.92-3.605,5.406l2.905,15.577c0.465,2.496,2.838,4.114,5.299,3.612l9.168-1.87
					c1.482,3.965,3.274,7.75,5.37,11.312l-7.05,6.266c-1.901,1.69-2.112,4.618-0.472,6.541l10.282,12.047
					c1.647,1.93,4.527,2.12,6.431,0.423l7.049-6.284c3.23,2.657,6.687,5.021,10.325,7.071l-3.034,9.015
					c-0.822,2.441,0.447,5.091,2.834,5.918l14.944,5.179c2.392,0.829,4.994-0.483,5.811-2.929l2.985-8.946
					c4.099,0.653,8.292,0.925,12.536,0.833l1.807,9.26c0.495,2.535,2.909,4.181,5.392,3.675l15.525-3.166
					c2.482-0.506,4.087-2.972,3.585-5.505l-1.82-9.182c3.979-1.563,7.77-3.452,11.331-5.652l6.048,6.98
					c1.679,1.938,4.577,2.129,6.471,0.425l11.832-10.639c1.89-1.699,2.058-4.642,0.376-6.573l-6.028-6.921
					c2.631-3.346,4.961-6.923,6.972-10.681l8.582,2.933c2.399,0.82,4.984-0.485,5.774-2.912l4.932-15.15
					c0.787-2.418-0.516-5.038-2.909-5.851l-8.5-2.89c0.609-4.176,0.836-8.443,0.701-12.755l8.768-1.788
					c2.461-0.502,4.039-2.925,3.524-5.411l-3.212-15.514c-0.513-2.476-2.918-4.076-5.372-3.575l-8.741,1.783
					c-1.567-3.99-3.446-7.791-5.633-11.353l6.64-5.919c1.867-1.665,2.031-4.54,0.368-6.422l-10.383-11.746
					c-1.657-1.875-4.511-2.051-6.376-0.393l-6.682,5.939c-3.273-2.605-6.763-4.921-10.433-6.911l2.837-8.504
					c0.79-2.367-0.483-4.925-2.843-5.717l-14.737-4.94c-2.354-0.789-4.906,0.484-5.7,2.845l-2.869,8.524
					c-4.056-0.6-8.2-0.835-12.394-0.707l-1.756-8.859c-0.484-2.438-2.848-4.011-5.281-3.515l-15.217,3.104
					C1835.55,2053.894,1833.963,2056.273,1834.44,2058.712z M1817.075,2143.43c-4.789-25.055,11.36-49.337,36.045-54.371
					c24.684-5.034,48.774,11.042,53.834,36.042c5.09,25.152-10.992,49.778-35.947,54.867
					C1846.052,2185.058,1821.894,2168.637,1817.075,2143.43z"/>
			</g>
			
				<linearGradient id="SVGID_00000017513825130368928070000003550180318962145413_" gradientUnits="userSpaceOnUse" x1="1466.4054" y1="2151.8655" x2="538.8508" y2="3067.8271">
				<stop  offset="0" style="stop-color:#FFC444"/>
				<stop  offset="0.9964" style="stop-color:#F36F56"/>
			</linearGradient>
			<path style="fill:url(#SVGID_00000017513825130368928070000003550180318962145413_);" d="M876.132,1883.54v992.284
				c0,15.168,12.681,28.072,29.871,30.396l574.024,77.615c18.007,2.028,33.96-10.2,33.96-26.032v-1095.71
				c0-14.763-13.957-26.621-30.883-26.239l-572.891,16.944C891.207,1853.361,876.132,1866.958,876.132,1883.54z"/>
			
				<linearGradient id="SVGID_00000093886171146110081640000015004369376149387142_" gradientUnits="userSpaceOnUse" x1="1405.5674" y1="2129.2502" x2="505.143" y2="3018.4207">
				<stop  offset="0" style="stop-color:#FFC444"/>
				<stop  offset="0.9964" style="stop-color:#F36F56"/>
			</linearGradient>
			<path style="opacity:0.3;fill:url(#SVGID_00000093886171146110081640000015004369376149387142_);" d="M1142.89,2677.965
				c-8.275-115.877,74.006-143.536,60.138-278.741c-20.081-195.792-205.279-261.137-189.911-422.251
				c4.798-50.297,27.59-93.574,54.895-128.842l-157.799,4.667c-19.007,0.563-34.081,14.159-34.081,30.742v992.284
				c0,15.168,12.681,28.072,29.871,30.396l442.245,59.797C1193.947,2854.836,1148.477,2756.197,1142.89,2677.965z"/>
		</g>
	</g>
</g>
</svg>
