<svg xmlns="http://www.w3.org/2000/svg" xmlns:xlink="http://www.w3.org/1999/xlink" viewBox="0,0,256,256" width="50px" height="50px"><g fill="none" fill-rule="nonzero" stroke="none" stroke-width="1" stroke-linecap="butt" stroke-linejoin="miter" stroke-miterlimit="10" stroke-dasharray="" stroke-dashoffset="0" font-family="none" font-weight="none" font-size="none" text-anchor="none" style="mix-blend-mode: normal"><g transform="scale(2.56,2.56)"><path d="M13,27c-1.10457,0 -2,0.89543 -2,2c0,1.10457 0.89543,2 2,2c1.10457,0 2,-0.89543 2,-2c0,-1.10457 -0.89543,-2 -2,-2z" fill="#5f62e2"></path><path d="M77,12c-0.55228,0 -1,0.44772 -1,1c0,0.55228 0.44772,1 1,1c0.55228,0 1,-0.44772 1,-1c0,-0.55228 -0.44772,-1 -1,-1z" fill="#2ab691"></path><path d="M50,13c-20.43454,0 -37,16.56546 -37,37c0,20.43454 16.56546,37 37,37c20.43454,0 37,-16.56546 37,-37c0,-20.43454 -16.56546,-37 -37,-37z" fill="#333333"></path><path d="M83,11c-2.20914,0 -4,1.79086 -4,4c0,2.20914 1.79086,4 4,4c2.20914,0 4,-1.79086 4,-4c0,-2.20914 -1.79086,-4 -4,-4z" fill="#2ab691"></path><path d="M87,22c-1.10457,0 -2,0.89543 -2,2c0,1.10457 0.89543,2 2,2c1.10457,0 2,-0.89543 2,-2c0,-1.10457 -0.89543,-2 -2,-2z" fill="#5f62e2"></path><path d="M81,74c-1.10457,0 -2,0.89543 -2,2c0,1.10457 0.89543,2 2,2c1.10457,0 2,-0.89543 2,-2c0,-1.10457 -0.89543,-2 -2,-2zM15,59c-2.20914,0 -4,1.79086 -4,4c0,2.20914 1.79086,4 4,4c2.20914,0 4,-1.79086 4,-4c0,-2.20914 -1.79086,-4 -4,-4z" fill="#2ab691"></path><path d="M25,85c-1.10457,0 -2,0.89543 -2,2c0,1.10457 0.89543,2 2,2c1.10457,0 2,-0.89543 2,-2c0,-1.10457 -0.89543,-2 -2,-2z" fill="#5f62e2"></path><path d="M18.5,51c-1.38071,0 -2.5,1.11929 -2.5,2.5c0,1.38071 1.11929,2.5 2.5,2.5c1.38071,0 2.5,-1.11929 2.5,-2.5c0,-1.38071 -1.11929,-2.5 -2.5,-2.5z" fill="#ffffff"></path><path d="M21,66c-0.55228,0 -1,0.44772 -1,1c0,0.55228 0.44772,1 1,1c0.55228,0 1,-0.44772 1,-1c0,-0.55228 -0.44772,-1 -1,-1z" fill="#2ab691"></path><path d="M80,33c-0.55228,0 -1,0.44772 -1,1c0,0.55228 0.44772,1 1,1c0.55228,0 1,-0.44772 1,-1c0,-0.55228 -0.44772,-1 -1,-1z" fill="#ffffff"></path><path d="M37.9,44.7h3.1v12.5h-3.1z" fill="#5f62e2"></path><path d="M37.5,57c-0.3,0 -0.5,-0.2 -0.5,-0.5v-11c0,-0.3 0.2,-0.5 0.5,-0.5c0.3,0 0.5,0.2 0.5,0.5v11c0,0.3 -0.2,0.5 -0.5,0.5zM41.5,57c-0.3,0 -0.5,-0.2 -0.5,-0.5v-11c0,-0.3 0.2,-0.5 0.5,-0.5c0.3,0 0.5,0.2 0.5,0.5v11c0,0.3 -0.2,0.5 -0.5,0.5z" fill="#ffffff"></path><path transform="translate(-9.02787,73.96463) rotate(-65.057)" d="M51.4,35.9h4.1v16.3h-4.1z" fill="#5f62e2"></path><path d="M57.6,48.6c-0.1,0 -0.1,0 -0.2,0l-10,-4.6c-0.3,-0.1 -0.4,-0.4 -0.2,-0.7c0.1,-0.3 0.4,-0.4 0.7,-0.2l10,4.6c0.3,0.1 0.4,0.4 0.2,0.7c-0.1,0.1 -0.3,0.2 -0.5,0.2z" fill="#ffffff"></path><g fill="#ffffff"><path d="M59.3,45c-0.1,0 -0.1,0 -0.2,0l-6.4,-3c-0.3,-0.1 -0.4,-0.4 -0.2,-0.7c0.1,-0.3 0.4,-0.4 0.7,-0.2l6.4,3c0.3,0.1 0.4,0.4 0.2,0.7c-0.1,0.1 -0.3,0.2 -0.5,0.2z"></path></g><g fill="#5f62e2"><path transform="translate(-18.5198,28.57549) rotate(-24.943)" d="M47,54.1h16.7v4.2h-16.7z"></path></g><g fill="#ffffff"><path d="M52.5,60.2c-0.2,0 -0.4,-0.1 -0.5,-0.3c-0.1,-0.3 0,-0.5 0.2,-0.7l6.8,-3.2c0.3,-0.1 0.5,0 0.7,0.2c0.1,0.3 0,0.5 -0.2,0.7l-6.8,3.2c-0.1,0 -0.2,0.1 -0.2,0.1z"></path></g><g fill="#ffffff"><path d="M47.6,58c-0.2,0 -0.4,-0.1 -0.5,-0.3c-0.1,-0.3 0,-0.5 0.2,-0.7l10,-4.6c0.3,-0.1 0.5,0 0.7,0.2c0.2,0.2 0,0.5 -0.2,0.7l-10,4.6c0,0.1 -0.1,0.1 -0.2,0.1z"></path></g><g><path d="M66.5,40.7c-5.41239,0 -9.8,4.38761 -9.8,9.8c0,5.41239 4.38761,9.8 9.8,9.8c5.41239,0 9.8,-4.38761 9.8,-9.8c0,-5.41239 -4.38761,-9.8 -9.8,-9.8z" fill="#5f62e2"></path><path d="M66.5,41.4c5,0 9.1,4.1 9.1,9.1c0,5 -4.1,9.1 -9.1,9.1c-5,0 -9.1,-4.1 -9.1,-9.1c0,-5 4.1,-9.1 9.1,-9.1M66.5,40c-5.8,0 -10.5,4.7 -10.5,10.5c0,5.8 4.7,10.5 10.5,10.5c5.8,0 10.5,-4.7 10.5,-10.5c0,-5.8 -4.7,-10.5 -10.5,-10.5z" fill="#ffffff"></path></g><g fill="#ffffff"><path d="M66.5,57c-3.6,0 -6.5,-2.9 -6.5,-6.5c0,-3.6 2.9,-6.5 6.5,-6.5c0.3,0 0.5,0.2 0.5,0.5c0,0.3 -0.2,0.5 -0.5,0.5c-3,0 -5.5,2.5 -5.5,5.5c0,3 2.5,5.5 5.5,5.5c3,0 5.5,-2.5 5.5,-5.5c0,-0.3 0.2,-0.5 0.5,-0.5c0.3,0 0.5,0.2 0.5,0.5c0,3.6 -2.9,6.5 -6.5,6.5zM71.9,48.3c-0.2,0 -0.4,-0.1 -0.4,-0.3c-0.5,-1 -1.3,-1.8 -2.3,-2.4c-0.2,-0.1 -0.3,-0.4 -0.2,-0.7c0.1,-0.2 0.4,-0.3 0.7,-0.2c1.2,0.6 2.1,1.6 2.7,2.8c0.1,0.2 0,0.5 -0.2,0.7c-0.2,0.1 -0.2,0.1 -0.3,0.1z"></path></g><g><path d="M39.5,27.7c-5.41239,0 -9.8,4.38761 -9.8,9.8c0,5.41239 4.38761,9.8 9.8,9.8c5.41239,0 9.8,-4.38761 9.8,-9.8c0,-5.41239 -4.38761,-9.8 -9.8,-9.8z" fill="#5f62e2"></path><path d="M39.5,28.4c5,0 9.1,4.1 9.1,9.1c0,5 -4.1,9.1 -9.1,9.1c-5,0 -9.1,-4.1 -9.1,-9.1c0,-5 4.1,-9.1 9.1,-9.1M39.5,27c-5.8,0 -10.5,4.7 -10.5,10.5c0,5.8 4.7,10.5 10.5,10.5c5.8,0 10.5,-4.7 10.5,-10.5c0,-5.8 -4.7,-10.5 -10.5,-10.5z" fill="#ffffff"></path></g><g fill="#ffffff"><path d="M39.5,44c-3.6,0 -6.5,-2.9 -6.5,-6.5c0,-3.6 2.9,-6.5 6.5,-6.5c0.3,0 0.5,0.2 0.5,0.5c0,0.3 -0.2,0.5 -0.5,0.5c-3,0 -5.5,2.5 -5.5,5.5c0,3 2.5,5.5 5.5,5.5c3,0 5.5,-2.5 5.5,-5.5c0,-0.3 0.2,-0.5 0.5,-0.5c0.3,0 0.5,0.2 0.5,0.5c0,3.6 -2.9,6.5 -6.5,6.5zM44.9,35.3c-0.2,0 -0.4,-0.1 -0.4,-0.3c-0.5,-1 -1.3,-1.8 -2.3,-2.4c-0.2,-0.1 -0.3,-0.4 -0.2,-0.7c0.1,-0.2 0.4,-0.3 0.7,-0.2c1.2,0.6 2.1,1.6 2.7,2.8c0.1,0.2 0,0.5 -0.2,0.7c-0.2,0.1 -0.2,0.1 -0.3,0.1z"></path></g><g><path d="M39.5,54.7c-5.41239,0 -9.8,4.38761 -9.8,9.8c0,5.41239 4.38761,9.8 9.8,9.8c5.41239,0 9.8,-4.38761 9.8,-9.8c0,-5.41239 -4.38761,-9.8 -9.8,-9.8z" fill="#5f62e2"></path><path d="M39.5,55.4c5,0 9.1,4.1 9.1,9.1c0,5 -4.1,9.1 -9.1,9.1c-5,0 -9.1,-4.1 -9.1,-9.1c0,-5 4.1,-9.1 9.1,-9.1M39.5,54c-5.8,0 -10.5,4.7 -10.5,10.5c0,5.8 4.7,10.5 10.5,10.5c5.8,0 10.5,-4.7 10.5,-10.5c0,-5.8 -4.7,-10.5 -10.5,-10.5z" fill="#ffffff"></path></g><g fill="#ffffff"><path d="M39.5,71c-3.6,0 -6.5,-2.9 -6.5,-6.5c0,-3.6 2.9,-6.5 6.5,-6.5c0.3,0 0.5,0.2 0.5,0.5c0,0.3 -0.2,0.5 -0.5,0.5c-3,0 -5.5,2.5 -5.5,5.5c0,3 2.5,5.5 5.5,5.5c3,0 5.5,-2.5 5.5,-5.5c0,-0.3 0.2,-0.5 0.5,-0.5c0.3,0 0.5,0.2 0.5,0.5c0,3.6 -2.9,6.5 -6.5,6.5zM44.9,62.3c-0.2,0 -0.4,-0.1 -0.4,-0.3c-0.5,-1 -1.3,-1.8 -2.3,-2.4c-0.2,-0.1 -0.3,-0.4 -0.2,-0.7c0.1,-0.3 0.4,-0.3 0.7,-0.2c1.2,0.6 2.1,1.6 2.7,2.8c0.1,0.2 0,0.5 -0.2,0.7c-0.2,0.1 -0.2,0.1 -0.3,0.1z"></path></g></g></g></svg>