<svg xmlns="http://www.w3.org/2000/svg" xmlns:xlink="http://www.w3.org/1999/xlink" width="1080" zoomAndPan="magnify" viewBox="0 0 810 809.999993" height="1080" preserveAspectRatio="xMidYMid meet" version="1.0"><defs><clipPath id="796b23f517"><path d="M 23.339844 0 L 786.839844 0 L 786.839844 810 L 23.339844 810 Z M 23.339844 0 " clip-rule="nonzero"/></clipPath></defs><g clip-path="url(#796b23f517)"><rect x="-81" width="972" fill="#ffffff" y="-80.999999" height="971.999992" fill-opacity="1"/></g><path fill="#1d1d1d" d="M 716.992188 432.140625 C 716.992188 607.082031 575.160156 748.917969 400.164062 748.917969 C 332.964844 748.917969 270.617188 727.957031 219.378906 692.277344 C 207.734375 684.199219 196.679688 675.328125 186.273438 665.816406 L 633.882812 218.207031 C 643.394531 228.613281 652.265625 239.613281 660.34375 251.261719 C 696.074219 302.550781 716.992188 364.890625 716.992188 432.140625 Z M 716.992188 432.140625 " fill-opacity="1" fill-rule="nonzero"/><path fill="#1d1d1d" d="M 503.492188 780.585938 C 503.492188 793.042969 493.394531 803.144531 480.933594 803.144531 C 468.472656 803.144531 458.375 793.046875 458.375 780.585938 C 458.375 768.125 468.472656 758.03125 480.933594 758.03125 C 493.386719 758.03125 503.492188 768.132812 503.492188 780.585938 Z M 503.492188 780.585938 " fill-opacity="1" fill-rule="nonzero"/><path fill="#1d1d1d" d="M 186.273438 665.808594 L 137.1875 714.894531 C 118.445312 733.636719 145.046875 763.519531 165.164062 746.257812 C 166.25 745.324219 167.304688 744.34375 168.335938 743.320312 L 219.378906 692.277344 L 660.34375 251.261719 C 652.265625 239.621094 643.394531 228.613281 633.882812 218.207031 Z M 186.273438 665.808594 " fill-opacity="1" fill-rule="nonzero"/><path fill="#1d1d1d" d="M 614.109375 198.425781 L 166.5 646.035156 C 156.9375 635.628906 148.113281 624.578125 140.039062 612.929688 C 104.308594 561.683594 83.339844 499.34375 83.339844 432.144531 C 83.339844 257.15625 225.222656 115.316406 400.164062 115.316406 C 467.417969 115.316406 529.761719 136.230469 581 171.960938 C 592.652344 180.042969 603.699219 188.863281 614.109375 198.425781 Z M 614.109375 198.425781 " fill-opacity="1" fill-rule="nonzero"/><path fill="#1d1d1d" d="M 512.9375 82.195312 C 514.71875 82.566406 516.476562 83.027344 518.214844 83.574219 C 519.953125 84.117188 521.65625 84.75 523.332031 85.460938 C 525.007812 86.175781 526.644531 86.96875 528.242188 87.84375 C 529.839844 88.71875 531.390625 89.667969 532.894531 90.695312 C 534.394531 91.722656 535.847656 92.820312 537.242188 93.988281 C 538.636719 95.15625 539.972656 96.390625 541.246094 97.691406 C 542.523438 98.992188 543.730469 100.351562 544.871094 101.769531 C 546.011719 103.1875 547.082031 104.660156 548.078125 106.183594 C 549.074219 107.707031 549.992188 109.277344 550.835938 110.890625 C 551.679688 112.503906 552.4375 114.15625 553.121094 115.84375 C 553.800781 117.535156 554.394531 119.25 554.90625 121 C 555.417969 122.746094 555.84375 124.515625 556.179688 126.304688 C 556.515625 128.09375 556.765625 129.894531 556.925781 131.707031 C 557.085938 133.523438 557.15625 135.339844 557.140625 137.160156 C 557.121094 138.980469 557.015625 140.796875 556.816406 142.605469 C 556.621094 144.414062 556.335938 146.210938 555.964844 147.992188 C 555.589844 149.777344 555.132812 151.535156 554.585938 153.273438 C 554.039062 155.007812 553.410156 156.714844 552.699219 158.390625 C 551.984375 160.066406 551.191406 161.703125 550.316406 163.300781 C 549.441406 164.894531 548.492188 166.445312 547.464844 167.949219 C 546.4375 169.453125 545.339844 170.902344 544.171875 172.300781 C 543.003906 173.695312 541.769531 175.03125 540.46875 176.304688 C 539.167969 177.582031 537.808594 178.789062 536.390625 179.929688 C 534.972656 181.070312 533.5 182.140625 531.976562 183.136719 C 530.453125 184.132812 528.882812 185.050781 527.269531 185.894531 C 525.65625 186.734375 524.003906 187.496094 522.316406 188.175781 C 520.625 188.855469 518.90625 189.453125 517.160156 189.964844 C 515.414062 190.476562 513.644531 190.898438 511.855469 191.238281 C 510.066406 191.574219 508.265625 191.824219 506.453125 191.984375 C 504.636719 192.144531 502.820312 192.214844 501 192.199219 C 499.179688 192.179688 497.363281 192.070312 495.554688 191.875 C 493.742188 191.679688 491.949219 191.394531 490.164062 191.023438 C 488.382812 190.648438 486.625 190.1875 484.886719 189.644531 C 483.148438 189.097656 481.445312 188.46875 479.769531 187.753906 C 478.09375 187.042969 476.457031 186.246094 474.859375 185.375 C 473.261719 184.5 471.714844 183.550781 470.210938 182.523438 C 468.707031 181.496094 467.253906 180.398438 465.859375 179.230469 C 464.464844 178.0625 463.128906 176.824219 461.855469 175.527344 C 460.578125 174.226562 459.371094 172.867188 458.230469 171.449219 C 457.089844 170.027344 456.019531 168.558594 455.023438 167.035156 C 454.027344 165.511719 453.109375 163.941406 452.265625 162.328125 C 451.425781 160.710938 450.664062 159.0625 449.984375 157.371094 C 449.300781 155.683594 448.707031 153.964844 448.195312 152.21875 C 447.683594 150.46875 447.261719 148.703125 446.921875 146.914062 C 446.585938 145.125 446.335938 143.320312 446.175781 141.507812 C 446.015625 139.695312 445.945312 137.878906 445.960938 136.058594 C 445.980469 134.238281 446.085938 132.421875 446.285156 130.613281 C 446.480469 128.800781 446.765625 127.003906 447.136719 125.222656 C 447.511719 123.441406 447.96875 121.679688 448.515625 119.945312 C 449.0625 118.207031 449.691406 116.5 450.40625 114.828125 C 451.117188 113.152344 451.910156 111.515625 452.785156 109.917969 C 453.660156 108.320312 454.609375 106.769531 455.636719 105.265625 C 456.664062 103.761719 457.761719 102.3125 458.929688 100.917969 C 460.097656 99.523438 461.332031 98.1875 462.632812 96.910156 C 463.933594 95.636719 465.292969 94.429688 466.710938 93.289062 C 468.128906 92.148438 469.601562 91.078125 471.125 90.082031 C 472.648438 89.085938 474.21875 88.164062 475.832031 87.324219 C 477.445312 86.480469 479.097656 85.71875 480.789062 85.039062 C 482.476562 84.359375 484.195312 83.765625 485.941406 83.253906 C 487.6875 82.742188 489.457031 82.316406 491.246094 81.980469 C 493.035156 81.640625 494.835938 81.394531 496.652344 81.234375 C 498.464844 81.074219 500.28125 81 502.101562 81.019531 C 503.921875 81.039062 505.738281 81.144531 507.546875 81.339844 C 509.359375 81.539062 511.15625 81.820312 512.9375 82.195312 Z M 512.9375 82.195312 " fill-opacity="1" fill-rule="nonzero"/><path fill="#1d1d1d" d="M 462.953125 45.945312 C 462.953125 47.09375 462.894531 48.238281 462.78125 49.382812 C 462.671875 50.523438 462.5 51.65625 462.277344 52.78125 C 462.054688 53.910156 461.777344 55.019531 461.441406 56.117188 C 461.109375 57.214844 460.722656 58.296875 460.285156 59.355469 C 459.84375 60.417969 459.355469 61.453125 458.8125 62.464844 C 458.273438 63.476562 457.683594 64.460938 457.046875 65.414062 C 456.410156 66.367188 455.726562 67.289062 454.996094 68.175781 C 454.269531 69.0625 453.5 69.910156 452.6875 70.722656 C 451.878906 71.535156 451.027344 72.304688 450.140625 73.03125 C 449.253906 73.761719 448.332031 74.441406 447.378906 75.082031 C 446.425781 75.71875 445.441406 76.308594 444.429688 76.847656 C 443.417969 77.390625 442.382812 77.878906 441.320312 78.320312 C 440.261719 78.757812 439.183594 79.144531 438.082031 79.476562 C 436.984375 79.808594 435.875 80.089844 434.75 80.3125 C 433.621094 80.535156 432.488281 80.703125 431.347656 80.816406 C 430.203125 80.929688 429.058594 80.984375 427.914062 80.984375 C 426.765625 80.984375 425.621094 80.929688 424.476562 80.816406 C 423.335938 80.703125 422.203125 80.535156 421.078125 80.3125 C 419.949219 80.089844 418.839844 79.808594 417.742188 79.476562 C 416.644531 79.144531 415.5625 78.757812 414.503906 78.320312 C 413.441406 77.878906 412.40625 77.390625 411.394531 76.847656 C 410.382812 76.308594 409.398438 75.71875 408.445312 75.082031 C 407.492188 74.441406 406.570312 73.761719 405.683594 73.03125 C 404.796875 72.304688 403.949219 71.535156 403.136719 70.722656 C 402.324219 69.910156 401.554688 69.0625 400.828125 68.175781 C 400.097656 67.289062 399.417969 66.367188 398.777344 65.414062 C 398.140625 64.460938 397.550781 63.476562 397.011719 62.464844 C 396.46875 61.453125 395.980469 60.417969 395.539062 59.355469 C 395.101562 58.296875 394.714844 57.214844 394.382812 56.117188 C 394.050781 55.019531 393.769531 53.910156 393.546875 52.78125 C 393.324219 51.65625 393.15625 50.523438 393.042969 49.382812 C 392.929688 48.238281 392.875 47.09375 392.875 45.945312 C 392.875 44.800781 392.929688 43.65625 393.042969 42.511719 C 393.15625 41.371094 393.324219 40.238281 393.546875 39.113281 C 393.769531 37.984375 394.050781 36.875 394.382812 35.777344 C 394.714844 34.679688 395.101562 33.597656 395.539062 32.539062 C 395.980469 31.476562 396.46875 30.441406 397.011719 29.429688 C 397.550781 28.417969 398.140625 27.433594 398.777344 26.480469 C 399.417969 25.527344 400.097656 24.605469 400.828125 23.71875 C 401.554688 22.832031 402.324219 21.980469 403.136719 21.171875 C 403.949219 20.359375 404.796875 19.589844 405.683594 18.863281 C 406.570312 18.132812 407.492188 17.449219 408.445312 16.8125 C 409.398438 16.175781 410.382812 15.585938 411.394531 15.046875 C 412.40625 14.503906 413.441406 14.015625 414.503906 13.574219 C 415.5625 13.136719 416.644531 12.75 417.742188 12.417969 C 418.839844 12.082031 419.949219 11.804688 421.078125 11.582031 C 422.203125 11.359375 423.335938 11.191406 424.476562 11.078125 C 425.621094 10.964844 426.765625 10.910156 427.914062 10.910156 C 429.058594 10.910156 430.203125 10.964844 431.347656 11.078125 C 432.488281 11.191406 433.621094 11.359375 434.75 11.582031 C 435.875 11.804688 436.984375 12.082031 438.082031 12.417969 C 439.183594 12.75 440.261719 13.136719 441.320312 13.574219 C 442.382812 14.015625 443.417969 14.503906 444.429688 15.046875 C 445.441406 15.585938 446.425781 16.175781 447.378906 16.8125 C 448.332031 17.449219 449.253906 18.132812 450.140625 18.863281 C 451.027344 19.589844 451.878906 20.359375 452.6875 21.171875 C 453.5 21.980469 454.269531 22.832031 454.996094 23.71875 C 455.726562 24.605469 456.410156 25.527344 457.046875 26.480469 C 457.683594 27.433594 458.273438 28.417969 458.8125 29.429688 C 459.355469 30.441406 459.84375 31.476562 460.285156 32.539062 C 460.722656 33.597656 461.109375 34.679688 461.441406 35.777344 C 461.777344 36.875 462.054688 37.984375 462.277344 39.113281 C 462.5 40.238281 462.671875 41.371094 462.78125 42.511719 C 462.894531 43.65625 462.953125 44.800781 462.953125 45.945312 Z M 462.953125 45.945312 " fill-opacity="1" fill-rule="nonzero"/><path fill="#1d1d1d" d="M 158.914062 566.4375 C 158.914062 587.300781 142.003906 604.210938 121.140625 604.210938 C 100.277344 604.210938 83.367188 587.300781 83.367188 566.4375 C 83.367188 545.574219 100.277344 528.664062 121.140625 528.664062 C 142.003906 528.664062 158.914062 545.574219 158.914062 566.4375 Z M 158.914062 566.4375 " fill-opacity="1" fill-rule="nonzero"/><path fill="#1d1d1d" d="M 614.109375 198.425781 L 663.148438 149.414062 C 681.910156 130.664062 655.289062 100.761719 635.160156 118.035156 C 634.078125 118.964844 633.019531 119.945312 631.992188 120.96875 L 140.03125 612.929688 C 148.109375 624.578125 156.929688 635.628906 166.492188 646.035156 Z M 614.109375 198.425781 " fill-opacity="1" fill-rule="nonzero"/><path fill="#5f62e2" d="M 140.664062 177.058594 L 284.882812 321.273438 C 309.585938 345.976562 349.644531 345.976562 374.347656 321.273438 C 399.050781 296.574219 399.050781 256.511719 374.347656 231.808594 L 230.128906 87.59375 C 205.425781 62.890625 165.367188 62.890625 140.664062 87.59375 C 115.957031 112.292969 115.957031 152.347656 140.664062 177.058594 Z M 140.664062 177.058594 " fill-opacity="1" fill-rule="nonzero"/><path fill="#ffb502" d="M 140.664062 465.320312 C 165.367188 490.027344 205.425781 490.027344 230.128906 465.320312 L 374.347656 321.101562 C 399.050781 296.398438 399.050781 256.339844 374.347656 231.636719 C 349.644531 206.925781 309.585938 206.925781 284.882812 231.636719 L 140.664062 375.855469 C 115.957031 400.5625 115.957031 440.617188 140.664062 465.320312 Z M 140.664062 465.320312 " fill-opacity="1" fill-rule="nonzero"/><path fill="#5f62e2" d="M 656.824219 687.199219 L 512.605469 542.984375 C 487.90625 518.28125 447.84375 518.28125 423.140625 542.984375 C 398.4375 567.683594 398.4375 607.746094 423.140625 632.449219 L 567.359375 776.664062 C 592.0625 801.367188 632.121094 801.367188 656.824219 776.664062 C 681.527344 751.957031 681.527344 711.902344 656.824219 687.199219 Z M 656.824219 687.199219 " fill-opacity="1" fill-rule="nonzero"/><path fill="#ffb502" d="M 656.824219 398.933594 C 632.117188 374.230469 592.0625 374.230469 567.359375 398.933594 L 423.140625 543.152344 C 398.4375 567.855469 398.4375 607.914062 423.140625 632.617188 C 447.84375 657.320312 487.90625 657.320312 512.605469 632.617188 L 656.824219 488.398438 C 681.527344 463.695312 681.527344 423.640625 656.824219 398.933594 Z M 656.824219 398.933594 " fill-opacity="1" fill-rule="nonzero"/></svg>