<?xml version="1.0" encoding="utf-8"?>
<!-- Generator: Adobe Illustrator 27.5.0, SVG Export Plug-In . SVG Version: 6.00 Build 0)  -->
<svg version="1.1" xmlns="http://www.w3.org/2000/svg" xmlns:xlink="http://www.w3.org/1999/xlink" x="0px" y="0px"
	 viewBox="0 0 3710 3710" style="enable-background:new 0 0 3710 3710;" xml:space="preserve">
<g id="Background">
	<g>
		<g>
			<rect style="fill:#FFFFFF;" width="3710" height="3710"/>
		</g>
	</g>
</g>
<g id="Illustration">
	<g>
		<path style="fill:#F4F7FA;" d="M3169.85,1249.131c74.369-677.361-582.327-912.688-1047.874-739.255
			c-469.324,174.84-578.13-114.989-1238.072-32.18c-668.227,83.848-328.958,1132.796-328.958,1132.796
			s106.325,912.126,232.293,1332.564c125.286,418.164,1324.535,266.874,1616.271,254.396c290.057-12.407,542.1,11.541,794.462-447.6
			C3449.872,2291.547,3095.727,1924.247,3169.85,1249.131z"/>
		<g>
			<g>
				
					<linearGradient id="SVGID_1_" gradientUnits="userSpaceOnUse" x1="-2552.3472" y1="-2844.6563" x2="-1937.0769" y2="1088.6888" gradientTransform="matrix(-0.8693 -0.4943 -0.4943 0.8693 -323.8322 2459.3813)">
					<stop  offset="0" style="stop-color:#FFC444"/>
					<stop  offset="0.9964" style="stop-color:#F36F56"/>
				</linearGradient>
				<path style="fill:url(#SVGID_1_);" d="M2267.236,2983.371c-22.519-0.228-71.306-20.576-81.837-31.125
					c-70.083-70.195-209.834-193.096-216.076-297.769c-1.066-17.876,76.31-43.795,85.489-61.411
					c45.322-28.499,62.811-35.574,92.588-83.833c87.908-142.474-176.972-358.851,87.163-477.407
					c193.475-86.841,371.448-37.802,312.717-347.207c-58.733-309.405,121.025-907.332,476.342-728.902
					c203.918,102.402,43.556,390.533,164.115,574.646c114.561,174.955,53.945,337.42-130.323,472.518
					c-184.268,135.098-68.534,208.334,9.9,378.217c94.216,204.066-227.844,280.524-379.542,303.139
					C2565.612,2702.448,2266.84,2831.237,2267.236,2983.371z"/>
				<g>
					<defs>
						<path id="SVGID_00000181786389736634805570000017133113738347502495_" d="M1915.898,2633.594
							c64.874,140.551,125.098,286.245,189.663,428.138c88.269-3.314,192.019-9.362,198.576-119.152
							c9.117-152.641,261.707-241.104,383.862-258.65c151.189-21.718,473.621-99.03,379.324-302.875
							c-78.502-169.699-194.161-243.135-9.898-378.191c184.263-135.056,244.836-297.534,130.308-472.516
							c-120.523-184.141,39.802-472.133-164.114-574.638c-355.313-178.61-535.119,419.836-476.308,728.778
							c58.81,308.942-119.557,261.837-312.664,346.979c-263.633,116.237-0.633,341.097-86.786,474.834
							C2080.321,2611.144,2016.062,2601.109,1915.898,2633.594z"/>
					</defs>
					<clipPath id="SVGID_00000150097477552427932820000016778773829642721209_">
						<use xlink:href="#SVGID_00000181786389736634805570000017133113738347502495_"  style="overflow:visible;"/>
					</clipPath>
					<g style="opacity:0.8;clip-path:url(#SVGID_00000150097477552427932820000016778773829642721209_);">
						<g>
							<path style="fill:#FCFDFE;" d="M2081.036,2811.735c159.571-102.702,300.975-228.423,420.279-373.669
								c114.637-139.566,209.076-297.319,280.696-468.88c139.026-333.04,189.813-712.808,146.869-1098.249l-4.161,0.464
								c90.639,813.511-225.603,1537.553-845.95,1936.815L2081.036,2811.735z"/>
						</g>
						<g>
							<path style="fill:#FCFDFE;" d="M3116.26,2461.127l0.83-4.104c-198.539-39.962-518.321-3.662-712.854,80.923l1.668,3.84
								C2599.769,2457.491,2918.434,2421.307,3116.26,2461.127z"/>
						</g>
						<g>
							<path style="fill:#FCFDFE;" d="M2201.83,2732.032c73.157-83.727,101.199-200.992,83.354-348.538
								c-13.025-107.669-49.754-228.739-109.17-359.844l-3.813,1.728c59.241,130.715,95.856,251.371,108.827,358.62
								c17.697,146.315-10.008,262.485-82.347,345.28L2201.83,2732.032z"/>
						</g>
						<g>
							<path style="fill:#FCFDFE;" d="M2799.95,1921.071c127.333-161.817,334.561-225.713,485.978-250.825l-0.686-4.13
								c-152.146,25.23-360.421,89.499-488.581,252.365L2799.95,1921.071z"/>
						</g>
						<g>
							<path style="fill:#FCFDFE;" d="M2921.346,1462.436c-10.817-234.868-168.979-423.894-262.293-515.668l-2.937,2.985
								c92.877,91.343,250.298,279.434,261.052,512.873L2921.346,1462.436z"/>
						</g>
					</g>
				</g>
			</g>
		</g>
		<g>
			<g>
				<g>
					
						<linearGradient id="SVGID_00000093176617116222448590000000789894408115412127_" gradientUnits="userSpaceOnUse" x1="-2975.7864" y1="-3202.5261" x2="-2435.3005" y2="252.7311" gradientTransform="matrix(0.7776 -0.6288 0.6288 0.7776 4822.5537 2027.9053)">
						<stop  offset="0.0036" style="stop-color:#E38DDD"/>
						<stop  offset="1" style="stop-color:#9571F6"/>
					</linearGradient>
					<path style="fill:url(#SVGID_00000093176617116222448590000000789894408115412127_);" d="M1638.252,2765.62
						c19.487-3.407,58.879-27.998,66.505-38.642c50.747-70.835,154.376-197.285,144.871-288.909
						c-1.623-15.648-72.389-27.089-82.857-41.051c-43.348-18.246-59.517-21.887-92.205-59.476
						c-96.505-110.975,102.27-336.285-143.588-401.414c-180.087-47.706-327.373,20.164-320.553-256.41
						c6.821-276.574-234.206-769.266-516.782-563.962c-162.172,117.825,17.895,344.737-60.373,521.512
						c-74.375,167.983,1.321,300.177,180.304,391.026c178.982,90.85,89.096,170.827,45.315,329.265
						c-52.59,190.318,237.48,210.701,372.2,208.688C1339.575,2564.625,1616.915,2633.688,1638.252,2765.62z"/>
					<g>
						<defs>
							<path id="SVGID_00000103985487062511851790000004720648369262432908_" d="M1892.962,2412.354
								c-36.207,131.08-67.649,265.955-103.397,398.154c-76.987,9.706-167.783,19.248-189.113-74.988
								c-29.654-131.016-261.216-171.705-369.605-169.507c-134.152,2.719-424.666-18.351-371.973-208.489
								c43.866-158.289,133.659-238.427-45.313-329.241c-178.972-90.814-254.633-223.025-180.291-391.026
								c78.234-176.796-101.782-403.592,60.374-521.506c282.548-205.46,523.69,287.675,516.735,563.859
								s140.949,209.933,320.475,256.22c245.092,63.191,49.156,295.587,142.895,399.238
								C1747.234,2416.323,1801.506,2398.468,1892.962,2412.354z"/>
						</defs>
						<clipPath id="SVGID_00000031205689853282147230000011245733773461844612_">
							<use xlink:href="#SVGID_00000103985487062511851790000004720648369262432908_"  style="overflow:visible;"/>
						</clipPath>
						<g style="opacity:0.8;clip-path:url(#SVGID_00000031205689853282147230000011245733773461844612_);">
							<g>
								<path style="fill:#FCFDFE;" d="M1775.198,2590.305c-152.958-66.287-293.448-155.117-417.563-264.021
									c-119.26-104.645-223.604-227.934-310.134-366.444c-167.972-268.88-266.114-590.842-283.814-931.077l3.673-0.191
									c37.358,718.1,414.666,1300.664,1009.303,1558.359L1775.198,2590.305z"/>
							</g>
							<g>
								<path style="fill:#FCFDFE;" d="M827.863,2433.906l-1.304-3.439c166.407-62.933,448.78-77.036,629.462-31.436l-0.899,3.567
									C1275.06,2357.154,993.672,2371.198,827.863,2433.906z"/>
							</g>
							<g>
								<path style="fill:#FCFDFE;" d="M1659.132,2538.429c-75.346-62.153-116.365-159.807-121.922-290.249
									c-4.053-95.188,10.533-205.37,43.354-327.484l3.552,0.954c-32.725,121.751-47.271,231.558-43.232,326.374
									c5.51,129.354,46.08,226.106,120.585,287.568L1659.132,2538.429z"/>
							</g>
							<g>
								<path style="fill:#FCFDFE;" d="M1025.094,1920.689c-133.437-122.124-322.175-147.981-457.008-148.172l0.006-3.678
									c135.482,0.189,325.181,26.221,459.484,149.137L1025.094,1920.689z"/>
							</g>
							<g>
								<path style="fill:#FCFDFE;" d="M854.507,1540.425c-24.092-205.135,86.072-391.528,153.883-484.379l2.971,2.169
									c-67.493,92.415-177.149,277.892-153.205,481.78L854.507,1540.425z"/>
							</g>
						</g>
					</g>
				</g>
			</g>
			<g>
				<g>
					<defs>
						<path id="SVGID_00000134216714518308233490000014850078772825532046_" d="M1288.306,2813.698
							c124.586,18.482,249.68,34.638,375.183,48.447c1.553,2.001,100.715-204.009,7.529-351.979
							c-185.53-288.033,34.645-440.189,114.163-544.359c121.129-144.418,137.572-355.916-92.657-378.774
							c-223.127-26.521-155.232-400.471-40.92-671.501c69.197-128.183-41.151-337.152-186.41-417.923
							c-147.379-85.76-329.664-43.322-453.303,216.112c-160.46,295.625,65.664,562.703,125.241,749.429
							c58.72,183.369-211.936,244.227-59.815,434.226c126.157,166.347,303.385,309.728,187.417,443.202
							C1147.228,2471.756,1131.175,2601.01,1288.306,2813.698z"/>
					</defs>
					<clipPath id="SVGID_00000160173511085096267550000008652763904742613130_">
						<use xlink:href="#SVGID_00000134216714518308233490000014850078772825532046_"  style="overflow:visible;"/>
					</clipPath>
				</g>
				<g>
					<defs>
						<path id="SVGID_00000170963219522193813630000014639079443768356000_" d="M1288.306,2813.698
							c124.586,18.482,249.68,34.638,375.183,48.447c1.553,2.001,100.715-204.009,7.529-351.979
							c-185.53-288.033,34.645-440.189,114.163-544.359c121.129-144.418,137.572-355.916-92.657-378.774
							c-223.127-26.521-155.232-400.471-40.92-671.501c69.197-128.183-41.151-337.152-186.41-417.923
							c-147.379-85.76-329.664-43.322-453.303,216.112c-160.46,295.625,65.664,562.703,125.241,749.429
							c58.72,183.369-211.936,244.227-59.815,434.226c126.157,166.347,303.385,309.728,187.417,443.202
							C1147.228,2471.756,1131.175,2601.01,1288.306,2813.698z"/>
					</defs>
					<clipPath id="SVGID_00000162348981117779677420000006327351321110062726_">
						<use xlink:href="#SVGID_00000170963219522193813630000014639079443768356000_"  style="overflow:visible;"/>
					</clipPath>
					
						<linearGradient id="SVGID_00000121979924714665209080000011342778861040339091_" gradientUnits="userSpaceOnUse" x1="1446.8359" y1="-1473.0181" x2="694.5714" y2="664.9989" gradientTransform="matrix(0.9683 -0.2498 0.2498 0.9683 449.0454 2329.2092)">
						<stop  offset="0" style="stop-color:#FF9085"/>
						<stop  offset="1" style="stop-color:#FB6FBB"/>
					</linearGradient>
					
						<path style="clip-path:url(#SVGID_00000162348981117779677420000006327351321110062726_);fill:url(#SVGID_00000121979924714665209080000011342778861040339091_);" d="
						M1288.306,2813.698c124.586,18.482,249.68,34.638,375.183,48.447c1.553,2.001,100.715-204.009,7.529-351.979
						c-185.53-288.033,34.645-440.189,114.163-544.359c120.336-144.505,130.102-334.137-72.21-392.623
						c-223.385-68.516-179.366-388.246-61.367-657.652c69.197-128.183-41.151-337.152-186.41-417.923
						c-147.379-85.76-329.664-43.322-453.303,216.112c-160.46,295.625,65.664,562.703,125.241,749.429
						c58.72,183.369-211.936,244.227-59.815,434.226c126.157,166.347,303.385,309.728,187.417,443.202
						C1147.228,2471.756,1131.175,2601.01,1288.306,2813.698z"/>
					<g style="opacity:0.8;clip-path:url(#SVGID_00000162348981117779677420000006327351321110062726_);">
						<g>
							<path style="fill:#FCFDFE;" d="M1446.202,2870.959c2.379-14.452,7.643-508.978-65.725-987.182
								c-7.674-79.605-17.532-160.301-27.064-238.339c-25.545-209.182-51.966-425.49-36.658-629.595
								c17.126-228.427,85.978-419.507,210.492-584.157l3.911,2.319c-276.494,365.631-226.321,776.458-173.198,1211.407
								c9.536,78.058,19.393,158.775,27.058,238.327c76.54,498.846,66.217,986.482,65.649,988.395l-4.438-1.287l2.219,0.643
								L1446.202,2870.959z"/>
						</g>
						<g>
							<path style="fill:#FCFDFE;" d="M1314.063,1242.77c-100.491-160.696-214.395-381.027-275.586-499.397
								c-26.154-50.596-46.812-90.559-49.766-93.449l1.288-0.924l0.199-2.407c3.077,0.469,5.149,4.044,52.436,95.514
								c61.164,118.318,175.015,338.553,275.422,499.108L1314.063,1242.77z"/>
						</g>
						<g>
							<path style="fill:#FCFDFE;" d="M1317.084,1066.693l-1.662-6.41c51.066-102.499,127.868-185.934,222.102-241.289
								c74.805-43.945,138.269-57.421,154.601-58.679c3.494-0.265,4.919-0.051,5.902,0.901l-3.323,2.382
								c0.466,0.452,0.929,0.534,0.942,0.538c-5.695-1.039-67.505,9.165-143.997,51.67
								C1482.703,854.12,1383.912,932.559,1317.084,1066.693z"/>
						</g>
						<g>
							<path style="fill:#FCFDFE;" d="M1418.888,2205.328c17.389-137.804,93.848-270.052,227.246-393.072
								c69.473-64.067,151.777-122.906,244.618-174.881c4.862-2.72,8.701-4.87,9.277-5.348l3.347,2.907
								c-0.813,0.677-3.449,2.16-9.86,5.75c-129.001,72.218-433.041,271.882-470.088,565.424L1418.888,2205.328z"/>
						</g>
						<g>
							<path style="fill:#FCFDFE;" d="M1402.712,2051.565c-90.228-230.084-385.751-325.831-390.85-327.233
								c-0.022-0.006-0.035-0.01-0.048-0.013l0.311-1.88l-1.191,1.557l-1.033-2.232l2.137-1.271
								c2.741,0.125,303.63,97.188,394.993,330.174L1402.712,2051.565z"/>
						</g>
						<g>
							<path style="fill:#FCFDFE;" d="M1446.546,2791.009c13.381-58.726,65.473-150.629,237.648-254.967
								c4.043-2.448,7.536-4.564,8.057-5.031l1.437,1.172l2.704,0.41c-0.108,1.107-0.108,1.107-9.318,6.687
								c-171.103,103.687-222.799,194.714-236.036,252.817L1446.546,2791.009z"/>
						</g>
						<g>
							<path style="fill:#FCFDFE;" d="M1445.666,2674.469c-7.524-109.774-157.585-230.424-246.369-292.573
								c-3.029-2.121-4.971-3.486-5.651-4.023l2.938-2.721c0.649,0.516,2.514,1.817,5.406,3.842
								c89.431,62.604,240.607,184.257,248.239,295.626L1445.666,2674.469z"/>
						</g>
					</g>
				</g>
				<g>
					<defs>
						<path id="SVGID_00000045594061335559553720000004364007888438749095_" d="M1288.306,2813.698
							c124.586,18.482,249.68,34.638,375.183,48.447c1.553,2.001,100.715-204.009,7.529-351.979
							c-185.53-288.033,34.645-440.189,114.163-544.359c121.129-144.418,137.572-355.916-92.657-378.774
							c-223.127-26.521-155.232-400.471-40.92-671.501c69.197-128.183-41.151-337.152-186.41-417.923
							c-147.379-85.76-329.664-43.322-453.303,216.112c-160.46,295.625,65.664,562.703,125.241,749.429
							c58.72,183.369-211.936,244.227-59.815,434.226c126.157,166.347,303.385,309.728,187.417,443.202
							C1147.228,2471.756,1131.175,2601.01,1288.306,2813.698z"/>
					</defs>
					<clipPath id="SVGID_00000073705088364025468730000015514126938403121828_">
						<use xlink:href="#SVGID_00000045594061335559553720000004364007888438749095_"  style="overflow:visible;"/>
					</clipPath>
				</g>
			</g>
		</g>
		<g>
			<g>
				<g>
					
						<linearGradient id="SVGID_00000080899031316130431150000004015533837280212926_" gradientUnits="userSpaceOnUse" x1="1138.5697" y1="1850.5426" x2="2758.9844" y2="1850.5426">
						<stop  offset="0" style="stop-color:#444B8C"/>
						<stop  offset="0.9964" style="stop-color:#26264F"/>
					</linearGradient>
					<path style="fill:url(#SVGID_00000080899031316130431150000004015533837280212926_);" d="M1417.472,639.229l-278.429,2314.249
						c-4.174,34.699,19.741,65.804,53.243,69.128l1159.693,127.317c71.042,4.419,109.939-31.876,114.323-68.774l292.319-2460.433
						c4.359-36.692-30.495-69.92-101.839-69.921l-1170.245,24.648C1452.66,576.01,1421.625,604.712,1417.472,639.229z"/>
					
						<linearGradient id="SVGID_00000049198843064511511440000010681187575669207471_" gradientUnits="userSpaceOnUse" x1="1084.843" y1="1850.6086" x2="2712.083" y2="1850.6086">
						<stop  offset="0" style="stop-color:#444B8C"/>
						<stop  offset="0.9964" style="stop-color:#26264F"/>
					</linearGradient>
					<path style="fill:url(#SVGID_00000049198843064511511440000010681187575669207471_);" d="M1365.278,635.246L1085.32,2961.071
						c-4.198,34.874,19.799,66.139,53.424,69.487l1202.277,119.7c37.694,3.752,72.237-23.515,76.646-60.603l293.96-2473.148
						c4.383-36.881-23.302-66.526-61.408-65.883l-1215.603,20.511C1400.611,571.708,1369.454,600.557,1365.278,635.246z"/>
					
						<linearGradient id="SVGID_00000171719284244431105890000002642239627449717686_" gradientUnits="userSpaceOnUse" x1="2075.9197" y1="854.9788" x2="1315.1387" y2="4112.4941" gradientTransform="matrix(-1 0 0 1 3736.9658 0)">
						<stop  offset="0.0036" style="stop-color:#E38DDD"/>
						<stop  offset="1" style="stop-color:#9571F6"/>
					</linearGradient>
					<path style="fill:url(#SVGID_00000171719284244431105890000002642239627449717686_);" d="M1388.091,763.536l-259.485,2156.501
						c-3.92,32.581,18.553,61.737,50.027,64.797l1130.701,109.913c35.041,3.406,67.151-22.046,71.257-56.568l271.662-2284.615
						c4.084-34.343-21.619-62.13-57.014-61.753l-1142.305,12.164C1421.133,704.313,1391.992,731.114,1388.091,763.536z"/>
					<path style="fill:#FFFFFF;" d="M1994.432,633.648c-1.482,12.381,7.403,22.292,19.859,22.135
						c12.47-0.157,23.792-10.342,25.275-22.748c1.484-12.406-7.434-22.316-19.906-22.133
						C2007.203,611.084,1995.913,621.267,1994.432,633.648z"/>
					<g>
						<path style="fill:#FFFFFF;" d="M1583.579,2211.116c231.479-427.972,577.274-556.076,681.385-997.149
							c56.276-238.417,17.934-466.614-46.644-656.056l431.899-7.288c38.105-0.642,65.791,29.003,61.407,65.883l-293.959,2473.149
							c-4.408,37.088-38.951,64.355-76.646,60.602l-945.107-94.095C1388.925,2672.683,1480.395,2401.887,1583.579,2211.116z"/>
					</g>
				</g>
			</g>
			<g>
				<path style="fill:#FFFFFF;" d="M1763.99,1697.847l-60.305,27.568c-9.599,4.388-14.041,15.559-9.924,24.974l15.023,34.354
					c-14.868,9.99-28.683,21.078-41.306,33.175l-30.01-21.817c-8.272-6.013-20.016-4.011-26.252,4.46l-39.007,52.986
					c-6.239,8.476-4.67,20.301,3.523,26.428l29.588,22.121c-7.987,15.862-14.595,32.404-19.785,49.426l-36.775-4.107
					c-10.218-1.141-19.576,6.434-20.924,16.93l-8.474,65.966c-1.363,10.602,5.844,20.232,16.116,21.498l36.696,4.526
					c0.776,17.871,3.183,35.864,7.125,53.808l-34.465,15.015c-9.647,4.202-14.229,15.722-10.235,25.756l25.192,63.281
					c4.063,10.206,15.289,15.106,25.075,10.918l34.963-14.963c9.844,15.941,20.894,30.886,33.107,44.614l-23.05,31.384
					c-6.487,8.832-4.791,21.627,3.813,28.593l54.332,43.996c8.775,7.106,21.236,5.621,27.808-3.336l23.529-32.063
					c16.555,9.032,33.87,16.627,51.76,22.645l-4.437,40.943c-1.241,11.446,6.778,22.163,17.936,23.927l70.387,11.125
					c11.354,1.796,21.53-6.157,22.702-17.752l4.216-41.667c18.805-0.551,37.703-2.864,56.504-6.899l17.349,39.673
					c4.808,10.995,17.305,16.452,27.915,12.156l66.677-26.999c10.716-4.338,15.371-16.812,10.398-27.827l-18.085-40.06
					c16.165-10.421,31.186-22.12,44.842-35.042l35.556,26.583c9.777,7.311,23.251,5.704,30.064-3.608l42.605-58.208
					c6.811-9.304,4.31-22.679-5.561-29.855l-36.254-26.356c8.152-17.08,14.755-34.863,19.695-53.152l44.022,5.428
					c11.947,1.475,22.396-6.694,23.312-18.23l5.694-71.744c0.905-11.411-8.005-21.726-19.875-23.051l-43.8-4.892
					c-1.826-18.523-5.397-37.037-10.613-55.359l39.536-16.92c10.646-4.556,15.151-16.624,10.06-26.924l-31.558-63.839
					c-5.002-10.118-17.557-14.594-28.043-10.025l-38.937,16.963c-11.027-15.237-23.176-29.333-36.357-42.12l24.268-33.071
					c6.539-8.909,4.235-21.222-5.12-27.486l-57.923-38.788c-9.17-6.141-21.82-3.984-28.274,4.803l-23.922,32.572
					c-16.612-7.552-33.813-13.656-51.39-18.285l3.964-39.182c1.068-10.561-6.923-19.812-17.827-20.675l-67.619-5.348
					c-10.723-0.848-20.315,6.916-21.446,17.352l-4.155,38.33c-17.652,1.463-35.29,4.518-52.753,9.054l-15.647-34.66
					C1784.98,1697.448,1773.677,1693.419,1763.99,1697.847z M1962.853,2229.478c-104.44,43.588-224.045-7.409-267.431-111.07
					c-42.352-101.191,3.3-216.804,102.201-260.897c100.182-44.664,220.315-0.697,268.191,100.952
					C2114.886,2062.652,2068.708,2185.299,1962.853,2229.478z"/>
				<path style="fill:#FFFFFF;" d="M1648.627,1096.147l-38.73,27.256c-6.178,4.348-8.012,12.427-4.093,18.058l14.286,20.527
					c-9.203,8.867-17.558,18.311-24.978,28.25l-23.353-9.934c-6.446-2.742-14.416,0.37-17.815,6.948l-21.284,41.198
					c-3.408,6.598-0.973,14.224,5.451,17.037l23.166,10.144c-3.786,11.769-6.535,23.78-8.238,35.893l-26.177,2.99
					c-7.285,0.832-12.985,7.331-12.741,14.525l1.53,45.211c0.245,7.266,6.384,12.529,13.719,11.747l26.162-2.787
					c2.557,11.737,6.265,23.294,11.037,34.571l-22.368,15.445c-6.269,4.329-8.172,12.709-4.246,18.731l24.729,37.927
					c3.983,6.108,12.358,7.544,18.703,3.193l22.636-15.524c8.624,8.963,17.966,17.066,27.97,24.17l-12.468,24.454
					c-3.511,6.887-0.901,15.066,5.846,18.27l42.509,20.19c6.849,3.253,15.28,0.247,18.814-6.719l12.643-24.918
					c12.394,3.269,25.136,5.467,38.083,6.534l1.489,27.611c0.416,7.718,7.099,13.45,14.939,12.793l49.321-4.135
					c7.934-0.664,13.99-7.516,13.515-15.292l-1.706-27.948c12.737-3.379,25.328-7.92,37.65-13.566l16.099,23.133
					c4.457,6.405,13.512,7.958,20.219,3.453l42.054-28.249c6.743-4.529,8.522-13.387,3.981-19.768l-16.535-23.232
					c9.762-9.339,18.606-19.323,26.392-29.88l26.76,11.718c7.347,3.217,16.201,0.06,19.759-7.057l22.222-44.433
					c3.548-7.094,0.438-15.39-6.933-18.525l-27.115-11.535c3.618-12.364,6.123-24.944,7.457-37.596l30.033-3.2
					c8.136-0.866,14.229-7.762,13.6-15.389l-3.914-47.449c-0.624-7.549-7.682-12.912-15.755-11.99l-29.845,3.408
					c-3.226-11.787-7.622-23.31-13.103-34.466l24.676-16.922c6.635-4.55,8.348-13.073,3.83-19.023l-28.049-36.932
					c-4.453-5.863-13.372-6.936-19.926-2.41l-24.373,16.829c-9.093-8.327-18.826-15.75-29.125-22.171l12.792-25.21
					c3.444-6.787,0.549-14.506-6.451-17.238l-43.447-16.96c-6.895-2.692-15.249,0.57-18.671,7.282l-12.694,24.9
					c-12.139-2.517-24.534-3.998-37.039-4.455l-1.61-26.369c-0.434-7.108-6.914-12.031-14.463-11.006l-46.939,6.375
					c-7.463,1.014-13.197,7.551-12.817,14.611l1.397,25.927c-11.983,3.583-23.794,8.219-35.331,13.815l-14.667-20.608
					C1663.102,1092.772,1654.836,1091.777,1648.627,1096.147z M1843.809,1415.79c-66.373,45.086-154.119,30.608-195.642-30.911
					c-40.696-60.294-21.966-143.925,41.5-188.146c63.905-44.526,150.727-33.549,194.313,25.871
					C1928.463,1283.246,1910.657,1370.38,1843.809,1415.79z"/>
			</g>
		</g>
		<g>
			<defs>
				<path id="SVGID_00000091713249150638681070000002713803858289231506_" d="M753.645,3009.726
					c-238.177-243.319-373.462-1020.471-135.322-1252.352c234.543-228.379,1267.689-42.417,1441.209,240.202
					c236.72,385.554-258.727,794.433-479.102,1021.279C1356.794,3249.058,987.13,3248.25,753.645,3009.726z"/>
			</defs>
			<clipPath id="SVGID_00000128444940086600710710000001098320714832754310_">
				<use xlink:href="#SVGID_00000091713249150638681070000002713803858289231506_"  style="overflow:visible;"/>
			</clipPath>
			<g style="clip-path:url(#SVGID_00000128444940086600710710000001098320714832754310_);">
				<path style="fill:#FFFFFF;" d="M1944.618,2166.551c0,0-11.051-54.846,2.456-65.897c13.507-11.051,58.121-88,56.074-66.307
					s-11.46,49.526-11.46,49.526s42.158,4.093,31.516,29.06c-10.642,24.968-37.435,26.354-35.294,39.167
					C1990.05,2164.914,1946.255,2211.165,1944.618,2166.551z"/>
				
					<linearGradient id="SVGID_00000132080468290401238610000017602304553412143281_" gradientUnits="userSpaceOnUse" x1="-555.4421" y1="2316.2434" x2="9.7382" y2="2336.6365" gradientTransform="matrix(-1 0 0 1 1382.3665 0)">
					<stop  offset="0" style="stop-color:#FFC444"/>
					<stop  offset="0.9964" style="stop-color:#F36F56"/>
				</linearGradient>
				<path style="fill:url(#SVGID_00000132080468290401238610000017602304553412143281_);" d="M1934.97,2155.793
					c20.88-1.457,41.756-2.913,62.636-4.37c49.256,199.037,13.926,392.114-97.243,463.121
					c-173.686,110.938-496.473-98.074-566.424-325.659c-30.703-99.893-23.713-244.056,37.651-272.066
					c17.033-7.777,43.463-8.984,100.728,23.167c171.014,96.015,175.509,277.484,262.447,292.852
					C1773.421,2339.671,1835.841,2315.025,1934.97,2155.793z"/>
				
					<linearGradient id="SVGID_00000130625735048109696630000009700612833370307721_" gradientUnits="userSpaceOnUse" x1="2323.5574" y1="3861.7585" x2="1930.2343" y2="2975.1143" gradientTransform="matrix(0.9986 0.0533 -0.0533 0.9986 -439.0934 -19.3005)">
					<stop  offset="0" style="stop-color:#AA80F9"/>
					<stop  offset="0.9964" style="stop-color:#6165D7"/>
				</linearGradient>
				<path style="fill:url(#SVGID_00000130625735048109696630000009700612833370307721_);" d="M1243.062,3386.582h227.48
					c-10.721-192.736-10.576-371.398-4.01-533.298c-106.307,16.449-212.616,32.899-318.925,49.35
					c15.176,207.793,55.793,364.811,91.512,472.229C1240.433,3378.813,1241.748,3382.717,1243.062,3386.582z"/>
				
					<linearGradient id="SVGID_00000093874240297536061440000008754624234609828488_" gradientUnits="userSpaceOnUse" x1="2262.5637" y1="3888.8169" x2="1869.2408" y2="3002.1736" gradientTransform="matrix(0.9986 0.0533 -0.0533 0.9986 -439.0934 -19.3005)">
					<stop  offset="0" style="stop-color:#AA80F9"/>
					<stop  offset="0.9964" style="stop-color:#6165D7"/>
				</linearGradient>
				<path style="opacity:0.3;fill:url(#SVGID_00000093874240297536061440000008754624234609828488_);" d="M1243.063,3386.582
					h132.978c-13.854-73.447-59.442-118.546-84.065-171.172c-30.251-64.656-41.842-168.512,39.688-341.258
					c-61.352,9.494-122.704,18.989-184.056,28.481c15.176,207.792,55.793,364.811,91.512,472.228
					C1240.433,3378.813,1241.748,3382.717,1243.063,3386.582z"/>
				
					<linearGradient id="SVGID_00000133528882474121213520000001272621843920420284_" gradientUnits="userSpaceOnUse" x1="1613.6514" y1="3994.6313" x2="1220.3171" y2="3107.9624" gradientTransform="matrix(0.9976 -0.0694 0.0694 0.9976 -362.4067 92.9864)">
					<stop  offset="0" style="stop-color:#AA80F9"/>
					<stop  offset="0.9964" style="stop-color:#6165D7"/>
				</linearGradient>
				<path style="fill:url(#SVGID_00000133528882474121213520000001272621843920420284_);" d="M1181.389,3386.582
					c17.144-184.328,35.514-366.266,55.013-545.739c-210.301-21.24-286.521,49.733-311.152,78.335
					c-69.804,81.043-55.144,213.991-15.101,467.404H1181.389z"/>
				
					<linearGradient id="SVGID_00000153697863918928515020000004416165407419411871_" gradientUnits="userSpaceOnUse" x1="1104.7755" y1="3028.7654" x2="1699.7524" y2="1654.0065" gradientTransform="matrix(1 0 0 1 -201.5135 0)">
					<stop  offset="0" style="stop-color:#FFC444"/>
					<stop  offset="0.9964" style="stop-color:#F36F56"/>
				</linearGradient>
				<path style="fill:url(#SVGID_00000153697863918928515020000004416165407419411871_);" d="M674.483,2109.893
					c92.678-58.934,175.723-104.889,274.585-126.733c87.799-19.4,154.302-13.244,236.6-6.994
					c159.382,12.107,259.032,19.676,324.444,94.737c57.852,66.385,59.111,152.541,59.51,170.88
					c1.601,73.872-27.13,111.564-48.243,172.792c-33.977,98.535,0.409,116.997,10.383,378.98c0,0,9.907,310.815-69.29,358.149
					c-33.891,20.256-62.792,89.898-235.736,72.757c-115.968-11.496-153.683-13.627-212.41,6.247
					c-79.97,27.058-111.554-24.815-144.545-39.594c-31.635-14.179-35.664-68.795-39.484-164.021
					c-5.894-146.893-5.531-246.736-6.075-282.475c-2.493-163.977-44.016-289.178-97.195-449.527
					C693.766,2194.8,701.25,2166.944,674.483,2109.893z"/>
				
					<linearGradient id="SVGID_00000119116500933522780020000000515323834593359491_" gradientUnits="userSpaceOnUse" x1="1195.6674" y1="3046.8167" x2="1823.5577" y2="1596.0076" gradientTransform="matrix(1 0 0 1 -201.5135 0)">
					<stop  offset="0" style="stop-color:#FF9085"/>
					<stop  offset="1" style="stop-color:#FB6FBB"/>
				</linearGradient>
				<path style="opacity:0.4;fill:url(#SVGID_00000119116500933522780020000000515323834593359491_);" d="M1395.245,3066.581
					c-85.062-36.295-84.569-111.41-164.016-142.756c-111.321-43.921-252.736,42.96-258.177,30.373
					c-6.044-13.982,201.755-68.905,260.743-223.442c22.416-58.727,28.243-144.676-14.016-180.928
					c-50.402-43.238-120.162,26.288-198.518-12.408c-90.101-44.498-74.537-174.298-151.369-196.035
					c-40.699-11.514-84.045,13.878-115.175,38.17c39.291,122.711,67.464,230.924,69.504,365.063
					c0.544,35.739,0.182,135.582,6.075,282.475c3.82,95.225,7.849,149.842,39.484,164.021
					c32.991,14.779,61.452,39.406,141.421,12.348c58.727-19.874,105.813-11.496,221.781,0
					c172.944,17.141,195.598-31.502,229.488-51.758c22.071-13.193,32.564-33.027,39.587-71.131
					C1467.388,3084.311,1430.607,3081.668,1395.245,3066.581z"/>
				
					<linearGradient id="SVGID_00000108999035697881128810000016154190007849940374_" gradientUnits="userSpaceOnUse" x1="794.0563" y1="2737.2996" x2="1544.6813" y2="2737.2996">
					<stop  offset="0.0036" style="stop-color:#6165D7"/>
					<stop  offset="1" style="stop-color:#AA80F9"/>
				</linearGradient>
				<path style="fill:url(#SVGID_00000108999035697881128810000016154190007849940374_);" d="M853.124,2520.573
					c0,0-18.387-249.969,150.774-258.017s455.741-112.965,498.161,25.969c42.42,138.935,52.759,687.229,32.88,757.146
					c-19.879,69.917-82.302,215.719-162.633,192.715c-80.33-23.004-524.085,69.766-543.698-22.837
					C808.995,3122.948,750.156,2600.192,853.124,2520.573z"/>
				<g>
					<path style="fill:#FFFFFF;" d="M1170.09,1813.722c-1.855,41.227-8.197,73.665-13.742,95.814
						c-6.351,25.377-10.296,31.811-15.163,36.941c-7.328,7.725-18.144,13.954-77.977,25.445
						c-32.559,6.251-36.683,5.813-37.563,8.962c-4.291,15.373,80.502,73.071,171.713,65.127
						c55.823-4.86,107.921-33.779,105.714-50.542c-2.223-16.872-58.044-10.864-72.927-41.967
						c-10.351-21.636,4.106-50.797,20.63-74.702C1237.519,1850.421,1183.341,1842.098,1170.09,1813.722z"/>
					<g>
						
							<linearGradient id="SVGID_00000050658514451243309160000006136237297555945631_" gradientUnits="userSpaceOnUse" x1="1128.8893" y1="1830.4744" x2="1283.8407" y2="1830.4744">
							<stop  offset="0" style="stop-color:#311944"/>
							<stop  offset="1" style="stop-color:#893976"/>
						</linearGradient>
						<path style="fill:url(#SVGID_00000050658514451243309160000006136237297555945631_);" d="M1272.053,1835.505
							c14.003-16.67,16.429-46.95,2.387-66.924c-12.086-17.187-32.362-20.628-44.501-22.693
							c-35.179-5.976-80.628,6.415-97.903,38.162c-10.234,18.813,7.535,59.992,10.267,67.37c3.097,8.343,9.346,11.482,14.94,17.963
							c7.751,8.99,19.874,23.271,39.63,47.131c1.988-6.623,4.91-14.797,9.326-23.59c1.7-3.386,8.508-16.594,18.316-27.325
							C1244.164,1844.088,1258.779,1851.304,1272.053,1835.505z"/>
						<path style="fill:#FFFFFF;" d="M1167.98,1895.794c0,0,21.231,39.417,67.722,38.878c41.624-0.485,52.666-93.184,27.227-114.336
							c-8.489-7.059-26.045-10.739-40.654-7.474c-8.629,1.93-11.697,5.309-25.857,8.183c-13.063,2.656-16.624,1.034-20.688,4.097
							c-5.081,3.837-9.182,13.681-2.511,41.309c-7.487-8.434-16.821-12.018-23.723-9.201c-1.1,0.453-4.051,2.238-5.812,5.088
							C1137.317,1872.653,1146.299,1886.74,1167.98,1895.794z"/>
						
							<linearGradient id="SVGID_00000147222242079637317940000002696947332691064253_" gradientUnits="userSpaceOnUse" x1="1145.1343" y1="1881.9237" x2="1275.969" y2="1881.9237">
							<stop  offset="0" style="stop-color:#311944"/>
							<stop  offset="1" style="stop-color:#893976"/>
						</linearGradient>
						<path style="fill:url(#SVGID_00000147222242079637317940000002696947332691064253_);" d="M1174.15,1819.479
							c1.921,1.598-4.592,8.734-5.612,19.274c-1.983,20.457,17.458,46.178,38.519,49.396c12.451,1.901,16.295-5.459,37.104-6.541
							c12.885-0.668,23.463,1.532,30.093,3.356c5.302,22.834-2.014,44.928-17.601,54.529c-16.781,10.336-37.09,2.438-45.582-0.865
							c-5.679-2.21-23.883-9.25-32.659-26.758c-9.142-18.244,1.328-28.388-9.608-40.981c-5.516-6.352-13.043-9.377-19.885-21.47
							c-1.857-3.284-3.06-6.168-3.786-8.103C1156.442,1830.547,1171.368,1817.163,1174.15,1819.479z"/>
						<path style="fill:#FFFFFF;" d="M1258.752,1892.494c0,0-9.208,4.203-24.643,2.505c-0.75-0.083-1.592,0.093-1.708,0.478
							c-0.434,1.449,9.145,8.566,18.435,6.483c6.594-1.484,11.978-7.363,11.187-8.975
							C1261.687,1892.305,1260.213,1892.314,1258.752,1892.494z"/>
					</g>
				</g>
				
					<linearGradient id="SVGID_00000011009304713839896250000003184538509595867312_" gradientUnits="userSpaceOnUse" x1="828.0189" y1="2165.0684" x2="1044.5494" y2="2165.0684">
					<stop  offset="0.0036" style="stop-color:#6165D7"/>
					<stop  offset="1" style="stop-color:#AA80F9"/>
				</linearGradient>
				<path style="fill:url(#SVGID_00000011009304713839896250000003184538509595867312_);" d="M953.903,1982.115
					c0,0,108.834,248.368,87.995,326.29c-20.839,77.922-82.129,23.986-84.581,8.051s-129.298-292.503-129.298-292.503
					S876.995,1971.272,953.903,1982.115z"/>
				
					<linearGradient id="SVGID_00000093172786502879314810000008493157790331365050_" gradientUnits="userSpaceOnUse" x1="1307.8806" y1="2136.8857" x2="1460.941" y2="2136.8857">
					<stop  offset="0.0036" style="stop-color:#6165D7"/>
					<stop  offset="1" style="stop-color:#AA80F9"/>
				</linearGradient>
				<path style="fill:url(#SVGID_00000093172786502879314810000008493157790331365050_);" d="M1307.928,1987.073
					c-2.449,1.383,90.373,225.338,79.34,276.134c-11.032,50.796,83.235,21.377,72.875-20.913
					c-10.359-42.29-37.888-219.287-56.991-236.974C1384.051,1987.633,1323.557,1978.246,1307.928,1987.073z"/>
				
					<linearGradient id="SVGID_00000134945467808493962580000011783595547574418843_" gradientUnits="userSpaceOnUse" x1="1083.8818" y1="2432.0725" x2="1399.5579" y2="2432.0725">
					<stop  offset="0.0036" style="stop-color:#6165D7"/>
					<stop  offset="1" style="stop-color:#AA80F9"/>
				</linearGradient>
				<path style="fill:url(#SVGID_00000134945467808493962580000011783595547574418843_);" d="M1083.882,2384.794l311.661-52.403
					c0,0,36.618,173.711-111.32,195.799S1087.559,2465.698,1083.882,2384.794z"/>
				<g>
					
						<linearGradient id="SVGID_00000077310345750796182200000007414289997716198326_" gradientUnits="userSpaceOnUse" x1="1617.6765" y1="2635.1912" x2="1402.4451" y2="2471.9536">
						<stop  offset="0.0036" style="stop-color:#26264F"/>
						<stop  offset="1" style="stop-color:#444B8C"/>
					</linearGradient>
					<path style="fill:url(#SVGID_00000077310345750796182200000007414289997716198326_);" d="M1678.015,2253.189l-331.235,47.016
						c-3.637,0.516-6.596,3.186-7.482,6.749l-112.183,450.642c-1.609,6.464,7.031,21.337,13.547,19.955l324.22-78.382
						c3.307-0.702,5.944-3.196,6.829-6.458l121.475-422.341C1694.882,2264.119,1684.428,2252.279,1678.015,2253.189z"/>
					
						<linearGradient id="SVGID_00000160912663549042345030000003764086227585413784_" gradientUnits="userSpaceOnUse" x1="-665.9749" y1="2550.7156" x2="-1147.8391" y2="2807.1917" gradientTransform="matrix(-0.9948 0.1018 0.1018 0.9948 349.6805 -26.8702)">
						<stop  offset="0.0036" style="stop-color:#26264F"/>
						<stop  offset="1" style="stop-color:#444B8C"/>
					</linearGradient>
					<path style="fill:url(#SVGID_00000160912663549042345030000003764086227585413784_);" d="M1684.264,2263.298l-331.235,47.015
						c-3.637,0.516-6.596,3.186-7.482,6.749l-112.184,450.642c-1.609,6.465,4.106,12.381,10.621,10.999l327.147-69.427
						c3.308-0.701,5.944-3.195,6.829-6.457l116.271-428.232C1695.929,2268.336,1690.677,2262.387,1684.264,2263.298z"/>
					
						<linearGradient id="SVGID_00000139280863158493578260000006979353308919582371_" gradientUnits="userSpaceOnUse" x1="1537.9065" y1="2527.9138" x2="1534.2788" y2="2221.9951">
						<stop  offset="0" style="stop-color:#AA80F9"/>
						<stop  offset="0.9964" style="stop-color:#6165D7"/>
					</linearGradient>
					<path style="fill:url(#SVGID_00000139280863158493578260000006979353308919582371_);" d="M1594.982,2288.792l9.269-35.959
						c0.837-3.246-1.817-6.333-5.152-5.992l-121.053,12.39c-2.086,0.214-3.795,1.753-4.223,3.807l-8.249,39.568
						c-0.678,3.25,2.059,6.195,5.349,5.755l120.032-15.999C1592.899,2292.104,1594.492,2290.691,1594.982,2288.792z"/>
					<path style="opacity:0.3;fill:#FFFFFF;" d="M1425.48,2653.82c14.433-72.257-25.786-114.232,4.927-172.38
						c43.445-82.244,157.04-60.943,184.962-126.575c7.53-17.698,9.397-43.116-7.061-80.79l75.955-10.775
						c6.413-0.91,11.665,5.032,9.968,11.288L1577.96,2702.82c-0.885,3.265-3.522,5.752-6.829,6.457l-198.825,42.201
						C1404.917,2716.584,1419.617,2683.189,1425.48,2653.82z"/>
				</g>
				<path style="fill:#FFFFFF;" d="M1177.299,2626.625c0,0,49.231-15.141,67.364-29.321c18.133-14.19,36.68-35.893,65.364-37.75
					c28.685-1.848,58.929,9.732,46.069,14.421c-12.86,4.681-34.838,33.391-52.619,45.629
					c-17.782,12.239-60.732,17.574-68.806,17.833c-8.072,0.26-37.769,22.528-37.769,22.528L1177.299,2626.625z"/>
				
					<linearGradient id="SVGID_00000046315712753268859370000000533007440463023541_" gradientUnits="userSpaceOnUse" x1="197.148" y1="3306.2722" x2="798.5499" y2="1916.6674" gradientTransform="matrix(0.7052 -0.709 0.709 0.7052 -1463.4656 666.1393)">
					<stop  offset="0" style="stop-color:#FFC444"/>
					<stop  offset="0.9964" style="stop-color:#F36F56"/>
				</linearGradient>
				<path style="fill:url(#SVGID_00000046315712753268859370000000533007440463023541_);" d="M1206.569,2563.232
					c26.335,22.074,37.563,43.761,40.093,63.83c11.211,88.955-141.487,201.488-287.186,213.719
					c-107.849,9.054-215.797-36.724-283.788-106.628c-132.671-136.404-140.501-392.885-1.204-624.259
					c35.612,17.64,71.224,35.28,106.836,52.919c99.286,49.178,159.175,155.817,143.81,265.544
					c-10.138,72.397,13.188,137.754,55.17,167.525C1033.913,2633.904,1128.573,2621.421,1206.569,2563.232z"/>
			</g>
		</g>
		<g>
			
				<linearGradient id="SVGID_00000124875871401923600660000004756229794673550230_" gradientUnits="userSpaceOnUse" x1="799.2206" y1="-1383.5006" x2="444.1942" y2="-1.435" gradientTransform="matrix(-0.7363 -0.6767 -0.6767 0.7363 1825.3396 2899.4907)">
				<stop  offset="0" style="stop-color:#40447E"/>
				<stop  offset="0.9964" style="stop-color:#3C3B6B"/>
			</linearGradient>
			<path style="fill:url(#SVGID_00000124875871401923600660000004756229794673550230_);" d="M1979.397,1697.02l210.869-66.134
				l48.16-215.685l-233.234-191.448c-14.172-13.026,8.666-46.043,27.844-47.683c93.506-7.996,190.007,22.721,263.377,93.284
				c132.113,127.058,138.357,337.804,14.176,472.624c-126.391,137.218-340.083,146.136-477.469,19.859
				c-72.611-66.739-120.737-147.237-120.652-238.654c0.018-19.275,34.238-40.038,48.429-26.994L1979.397,1697.02z"/>
			
				<linearGradient id="SVGID_00000101821060468016938890000004150500884109407105_" gradientUnits="userSpaceOnUse" x1="28.1084" y1="-1581.5907" x2="-326.9518" y2="-199.3937" gradientTransform="matrix(-0.7363 -0.6767 -0.6767 0.7363 1825.3396 2899.4907)">
				<stop  offset="0" style="stop-color:#40447E"/>
				<stop  offset="0.9964" style="stop-color:#3C3B6B"/>
			</linearGradient>
			<path style="fill:url(#SVGID_00000101821060468016938890000004150500884109407105_);" d="M2305.054,1621.013l810.193,692.781
				c52.038,45.592,56.336,125.085,9.518,176.022l0,0c-46.805,50.923-126.349,53.342-176.162,5.358l-758.968-748.589
				L2305.054,1621.013z"/>
			
				<linearGradient id="SVGID_00000006681515831248226240000009353095380833575081_" gradientUnits="userSpaceOnUse" x1="795.9512" y1="-1365.626" x2="440.9248" y2="16.4396" gradientTransform="matrix(-0.7363 -0.6767 -0.6767 0.7363 1825.3396 2899.4907)">
				<stop  offset="0" style="stop-color:#AA80F9"/>
				<stop  offset="0.9964" style="stop-color:#6165D7"/>
			</linearGradient>
			<path style="fill:url(#SVGID_00000006681515831248226240000009353095380833575081_);" d="M1967.709,1711.322l210.869-66.134
				l48.161-215.685l-218.499-200.83c-14.171-13.025-6.07-36.661,13.109-38.301c93.506-7.996,190.007,22.721,263.376,93.284
				c132.113,127.058,138.357,337.804,14.176,472.624c-126.391,137.218-340.083,146.136-477.469,19.859
				c-72.611-66.739-109.369-157.892-109.284-249.309c0.018-19.275,22.869-29.383,37.06-16.34L1967.709,1711.322z"/>
			
				<linearGradient id="SVGID_00000150102663458494262190000002148698449147227821_" gradientUnits="userSpaceOnUse" x1="27.0359" y1="-1563.1517" x2="-328.0243" y2="-180.9544" gradientTransform="matrix(-0.7363 -0.6767 -0.6767 0.7363 1825.3396 2899.4907)">
				<stop  offset="0" style="stop-color:#AA80F9"/>
				<stop  offset="0.9964" style="stop-color:#6165D7"/>
			</linearGradient>
			<path style="fill:url(#SVGID_00000150102663458494262190000002148698449147227821_);" d="M2293.366,1635.316l810.193,692.781
				c52.038,45.592,56.336,125.085,9.518,176.022v0c-46.804,50.923-126.349,53.342-176.162,5.358l-758.968-748.589L2293.366,1635.316
				z"/>
			
				<linearGradient id="SVGID_00000106139879226108052860000005551389853907301520_" gradientUnits="userSpaceOnUse" x1="417.1395" y1="-895.9503" x2="429.8189" y2="-1162.2201" gradientTransform="matrix(-0.7363 -0.6767 -0.6767 0.7363 1825.3396 2899.4907)">
				<stop  offset="0" style="stop-color:#AA80F9"/>
				<stop  offset="0.9964" style="stop-color:#6165D7"/>
			</linearGradient>
			<path style="fill:url(#SVGID_00000106139879226108052860000005551389853907301520_);" d="M2258.699,1718.831
				c-18.69,20.335-17.357,51.971,2.978,70.662s51.972,17.358,70.663-2.977c18.691-20.335,17.357-51.972-2.978-70.662
				C2309.026,1697.162,2277.39,1698.496,2258.699,1718.831z"/>
			
				<linearGradient id="SVGID_00000018949874701257540800000018262342989179530684_" gradientUnits="userSpaceOnUse" x1="-114.1311" y1="-892.2301" x2="-101.2447" y2="-1162.8462" gradientTransform="matrix(-0.7363 -0.6767 -0.6767 0.7363 1825.3396 2899.4907)">
				<stop  offset="0" style="stop-color:#AA80F9"/>
				<stop  offset="0.9964" style="stop-color:#6165D7"/>
			</linearGradient>
			<path style="fill:url(#SVGID_00000018949874701257540800000018262342989179530684_);" d="M2327.358,1822.119l657.573,604.398
				c12.029,11.057,30.744,10.268,41.8-1.761l0,0c11.057-12.029,10.268-30.744-1.761-41.8l-657.573-604.398L2327.358,1822.119z"/>
		</g>
	</g>
</g>
</svg>
