<?xml version="1.0" encoding="iso-8859-1"?>
<!-- Uploaded to: SVG Repo, www.svgrepo.com, Generator: SVG Repo Mixer Tools -->
<svg height="800px" width="800px" version="1.1" id="Layer_1" xmlns="http://www.w3.org/2000/svg" xmlns:xlink="http://www.w3.org/1999/xlink" 
	 viewBox="0 0 511.999 511.999" xml:space="preserve">
<circle style="fill:#FFD630;" cx="256" cy="256" r="256"/>
<path style="fill:#F5BE18;" d="M398.338,221.402L268.676,91.74l-16.624,21.403l1.766,147.74l-122.182-35.844l-18.805,35.429
	l234.701,234.701c81.766-31.273,143.376-103.272,160-191.168l-95.896-95.895L398.338,221.402z"/>
<path style="fill:#FEFEFE;" d="M250.286,256.416l-2.493,8.104l-99.428-30.234l2.493-8.104L250.286,256.416z M248.623,131.013
	l8.416-0.208l2.078,103.896l-8.416,0.208L248.623,131.013z M385.663,225.974l2.39,8.104l-127.896,28.571l-2.39-8.104
	L385.663,225.974z M251.533,270.858l8.208-2.078l40.727,99.637l-8.208,2.078L251.533,270.858z"/>
<circle style="fill:#E84F4F;" cx="253.818" cy="260.884" r="56.206"/>
<path style="fill:#C94545;" d="M253.819,204.676c31.065,0,56.208,25.143,56.208,56.208s-25.143,56.208-56.208,56.208
	L253.819,204.676L253.819,204.676z"/>
<circle style="fill:#C5C6C6;" cx="303.378" cy="386.496" r="40.727"/>
<path style="fill:#9D9E9E;" d="M303.376,345.663c22.545,0,40.727,18.286,40.727,40.727c0,22.545-18.286,40.727-40.727,40.727
	V345.663L303.376,345.663z"/>
<circle style="fill:#00CC96;" cx="390.029" cy="229.608" r="30.442"/>
<path style="fill:#12B589;" d="M390.026,199.169c16.831,0,30.442,13.61,30.442,30.442s-13.61,30.442-30.442,30.442v-60.987l0,0
	V199.169z"/>
<circle style="fill:#006775;" cx="131.638" cy="225.034" r="40.103"/>
<path style="fill:#004F59;" d="M131.637,184.935c22.13,0,40.104,17.974,40.104,40.104s-17.974,40.104-40.104,40.104V184.935
	L131.637,184.935z"/>
<circle style="fill:#E84F4F;" cx="252.056" cy="108.469" r="23.584"/>
<path style="fill:#C94545;" d="M252.052,84.883c12.987,0,23.584,10.598,23.584,23.584s-10.598,23.584-23.584,23.584L252.052,84.883
	L252.052,84.883z"/>
</svg>