<?xml version="1.0" encoding="iso-8859-1"?>
<!-- Uploaded to: SVG Repo, www.svgrepo.com, Generator: SVG Repo Mixer Tools -->
<svg height="800px" width="800px" version="1.1" id="Layer_1" xmlns="http://www.w3.org/2000/svg" xmlns:xlink="http://www.w3.org/1999/xlink" 
	 viewBox="0 0 512 512" xml:space="preserve">
<circle style="fill:#FFD630;" cx="256" cy="255.997" r="255.997"/>
<path style="fill:#F5BE18;" d="M503.546,321.955C475.008,429.344,378.611,509.04,263.189,512L100.415,349.225l231.69-176.092
	l77.371,77.371l11.415-11.415l82.867,82.867L503.546,321.955L503.546,321.955z"/>
<path style="fill:#E84F4F;" d="M376.075,217.737c31.498,0,57.077,25.579,57.077,57.077c0,9.302-2.114,17.969-6.131,25.579
	c10.147,6.131,16.911,17.335,16.911,30.018l0,0c0,19.448-15.855,35.303-35.303,35.303h-259.17h-1.691c-1.057,0-2.325,0-3.382-0.211
	c-42.702-2.537-76.525-38.051-76.525-81.387c0-45.028,36.571-81.598,81.598-81.598c9.935,0,19.237,1.691,28.115,4.862
	c13.318-35.937,47.987-61.305,88.574-61.305c45.239,0,83.078,31.71,92.169,74.2c5.708-1.902,11.627-2.748,17.757-2.748
	L376.075,217.737L376.075,217.737z"/>
<path style="fill:#F7F7F8;" d="M256.002,179.474L256.002,179.474c6.764,0,12.261,5.496,12.261,12.261v72.509l16.911-10.782
	c13.318-8.456,25.156,10.993,11.204,19.871l-33.401,21.351c-1.902,1.269-4.228,1.902-6.553,1.902l0,0h-0.211l0,0h-0.211l0,0
	c-2.325,0-4.862-0.634-6.553-1.902l-33.401-21.351c-14.164-8.878-2.114-28.327,11.204-19.871l16.911,10.782v-72.509
	c0-6.764,5.496-12.261,12.261-12.261L256.002,179.474L256.002,179.474z"/>
<path style="fill:#F5F5F5;" d="M256.002,313.711c23.888,0,47.987-9.724,61.516-29.173c5.496-10.569,21.351-1.691,15.22,8.878
	c-15.22,26.635-46.93,39.108-76.736,39.108s-61.516-12.261-76.736-39.108c-6.131-10.569,9.724-19.448,15.22-8.878
	C208.015,303.987,231.903,313.711,256.002,313.711z"/>
</svg>