<svg xmlns="http://www.w3.org/2000/svg" xmlns:xlink="http://www.w3.org/1999/xlink" width="1080" zoomAndPan="magnify" viewBox="0 0 810 809.999993" height="1080" preserveAspectRatio="xMidYMid meet" version="1.0"><defs><clipPath id="2c22651a4c"><path d="M 202.375 129.839844 L 654.625 129.839844 L 654.625 630.089844 L 202.375 630.089844 Z M 202.375 129.839844 " clip-rule="nonzero"/></clipPath></defs><path fill="#ffffff" d="M 616.792969 58.027344 C 810.457031 109.902344 838.230469 285.5625 786.339844 479.171875 C 734.445312 672.785156 622.539062 811.027344 428.878906 759.152344 C 235.214844 707.273438 -41.867188 464.828125 10.023438 271.21875 C 61.917969 77.609375 423.128906 6.148438 616.792969 58.027344 Z M 616.792969 58.027344 " fill-opacity="1" fill-rule="nonzero"/><g clip-path="url(#2c22651a4c)"><path fill="#ffffff" d="M -718.195312 0.878906 L 894.234375 0.878906 L 894.234375 1613.308594 L -718.195312 1613.308594 Z M -718.195312 0.878906 " fill-opacity="1" fill-rule="nonzero"/></g><path fill="#1d1d1d" d="M 613.125 385.738281 C 613.125 489.332031 529.136719 573.324219 425.515625 573.324219 C 385.71875 573.324219 348.800781 560.910156 318.457031 539.78125 C 311.5625 535 305.015625 529.746094 298.855469 524.113281 L 563.910156 259.054688 C 569.546875 265.21875 574.800781 271.730469 579.582031 278.628906 C 600.738281 309 613.125 345.917969 613.125 385.738281 Z M 613.125 385.738281 " fill-opacity="1" fill-rule="nonzero"/><path fill="#1d1d1d" d="M 486.699219 592.074219 C 486.699219 599.453125 480.71875 605.433594 473.339844 605.433594 C 465.964844 605.433594 459.984375 599.453125 459.984375 592.074219 C 459.984375 584.699219 465.964844 578.71875 473.339844 578.71875 C 480.71875 578.71875 486.699219 584.699219 486.699219 592.074219 Z M 486.699219 592.074219 " fill-opacity="1" fill-rule="nonzero"/><path fill="#1d1d1d" d="M 298.855469 524.109375 L 269.789062 553.175781 C 258.6875 564.273438 274.441406 581.96875 286.355469 571.746094 C 286.996094 571.195312 287.621094 570.613281 288.230469 570.007812 L 318.457031 539.78125 L 579.582031 278.628906 C 574.796875 271.734375 569.546875 265.21875 563.910156 259.054688 Z M 298.855469 524.109375 " fill-opacity="1" fill-rule="nonzero"/><path fill="#1d1d1d" d="M 552.203125 247.34375 L 287.144531 512.398438 C 281.480469 506.238281 276.257812 499.695312 271.476562 492.796875 C 250.316406 462.449219 237.902344 425.535156 237.902344 385.738281 C 237.902344 282.117188 321.917969 198.128906 425.515625 198.128906 C 465.335938 198.128906 502.253906 210.511719 532.597656 231.667969 C 539.496094 236.453125 546.039062 241.679688 552.203125 247.34375 Z M 552.203125 247.34375 " fill-opacity="1" fill-rule="nonzero"/><path fill="#1d1d1d" d="M 492.292969 178.515625 C 493.347656 178.734375 494.390625 179.007812 495.417969 179.328125 C 496.445312 179.652344 497.457031 180.027344 498.449219 180.449219 C 499.441406 180.871094 500.410156 181.339844 501.355469 181.859375 C 502.300781 182.375 503.21875 182.9375 504.109375 183.546875 C 505 184.15625 505.859375 184.804688 506.6875 185.496094 C 507.511719 186.1875 508.304688 186.921875 509.058594 187.691406 C 509.8125 188.460938 510.527344 189.265625 511.203125 190.105469 C 511.878906 190.945312 512.511719 191.816406 513.101562 192.71875 C 513.691406 193.621094 514.238281 194.550781 514.734375 195.507812 C 515.234375 196.460938 515.683594 197.441406 516.085938 198.441406 C 516.492188 199.441406 516.84375 200.457031 517.144531 201.492188 C 517.449219 202.527344 517.699219 203.574219 517.898438 204.632812 C 518.097656 205.691406 518.246094 206.757812 518.34375 207.832031 C 518.4375 208.90625 518.480469 209.984375 518.46875 211.0625 C 518.457031 212.140625 518.394531 213.214844 518.277344 214.285156 C 518.160156 215.359375 517.992188 216.421875 517.773438 217.476562 C 517.550781 218.53125 517.28125 219.574219 516.957031 220.601562 C 516.632812 221.632812 516.261719 222.640625 515.835938 223.632812 C 515.414062 224.625 514.945312 225.59375 514.425781 226.539062 C 513.910156 227.488281 513.347656 228.40625 512.738281 229.296875 C 512.132812 230.183594 511.480469 231.042969 510.789062 231.871094 C 510.097656 232.695312 509.367188 233.488281 508.597656 234.242188 C 507.828125 234.996094 507.019531 235.710938 506.179688 236.386719 C 505.339844 237.0625 504.46875 237.695312 503.566406 238.285156 C 502.664062 238.878906 501.734375 239.421875 500.78125 239.921875 C 499.824219 240.417969 498.847656 240.871094 497.847656 241.273438 C 496.847656 241.675781 495.828125 242.027344 494.792969 242.332031 C 493.757812 242.632812 492.710938 242.882812 491.652344 243.085938 C 490.59375 243.285156 489.527344 243.429688 488.453125 243.527344 C 487.378906 243.621094 486.300781 243.664062 485.222656 243.652344 C 484.144531 243.640625 483.070312 243.578125 482 243.460938 C 480.925781 243.347656 479.863281 243.179688 478.808594 242.957031 C 477.753906 242.734375 476.710938 242.464844 475.683594 242.140625 C 474.65625 241.816406 473.644531 241.445312 472.652344 241.023438 C 471.660156 240.601562 470.691406 240.128906 469.746094 239.613281 C 468.800781 239.09375 467.882812 238.53125 466.992188 237.925781 C 466.101562 237.316406 465.242188 236.667969 464.414062 235.972656 C 463.589844 235.28125 462.796875 234.550781 462.042969 233.78125 C 461.289062 233.011719 460.574219 232.207031 459.898438 231.367188 C 459.222656 230.527344 458.589844 229.65625 458 228.753906 C 457.410156 227.851562 456.863281 226.921875 456.367188 225.964844 C 455.867188 225.007812 455.417969 224.03125 455.015625 223.03125 C 454.609375 222.03125 454.257812 221.011719 453.957031 219.980469 C 453.652344 218.945312 453.402344 217.898438 453.203125 216.835938 C 453 215.777344 452.855469 214.710938 452.757812 213.636719 C 452.664062 212.5625 452.621094 211.488281 452.632812 210.410156 C 452.644531 209.332031 452.707031 208.257812 452.824219 207.183594 C 452.941406 206.113281 453.109375 205.046875 453.328125 203.992188 C 453.550781 202.9375 453.820312 201.894531 454.144531 200.867188 C 454.46875 199.839844 454.839844 198.828125 455.261719 197.835938 C 455.6875 196.84375 456.15625 195.875 456.671875 194.929688 C 457.191406 193.984375 457.753906 193.066406 458.363281 192.175781 C 458.96875 191.285156 459.621094 190.425781 460.3125 189.601562 C 461.003906 188.773438 461.734375 187.984375 462.503906 187.230469 C 463.273438 186.472656 464.078125 185.757812 464.921875 185.082031 C 465.761719 184.40625 466.632812 183.773438 467.535156 183.183594 C 468.4375 182.59375 469.367188 182.050781 470.320312 181.550781 C 471.277344 181.050781 472.253906 180.601562 473.253906 180.199219 C 474.253906 179.796875 475.273438 179.441406 476.308594 179.140625 C 477.34375 178.835938 478.390625 178.585938 479.449219 178.386719 C 480.507812 178.1875 481.574219 178.039062 482.648438 177.945312 C 483.722656 177.847656 484.800781 177.808594 485.878906 177.816406 C 486.957031 177.828125 488.03125 177.890625 489.101562 178.007812 C 490.171875 178.125 491.238281 178.292969 492.292969 178.515625 Z M 492.292969 178.515625 " fill-opacity="1" fill-rule="nonzero"/><path fill="#1d1d1d" d="M 462.691406 157.050781 C 462.691406 157.730469 462.660156 158.40625 462.59375 159.082031 C 462.527344 159.757812 462.425781 160.429688 462.292969 161.097656 C 462.160156 161.761719 461.996094 162.421875 461.800781 163.070312 C 461.601562 163.722656 461.375 164.363281 461.113281 164.988281 C 460.855469 165.617188 460.5625 166.230469 460.242188 166.828125 C 459.921875 167.429688 459.574219 168.011719 459.195312 168.578125 C 458.820312 169.140625 458.414062 169.6875 457.984375 170.210938 C 457.550781 170.738281 457.097656 171.238281 456.617188 171.71875 C 456.136719 172.199219 455.632812 172.65625 455.105469 173.089844 C 454.582031 173.519531 454.035156 173.921875 453.472656 174.300781 C 452.90625 174.679688 452.324219 175.027344 451.726562 175.347656 C 451.125 175.667969 450.511719 175.957031 449.882812 176.21875 C 449.257812 176.476562 448.617188 176.707031 447.96875 176.90625 C 447.316406 177.101562 446.660156 177.265625 445.992188 177.398438 C 445.324219 177.53125 444.65625 177.632812 443.976562 177.699219 C 443.300781 177.765625 442.625 177.796875 441.945312 177.796875 C 441.265625 177.796875 440.585938 177.765625 439.910156 177.699219 C 439.234375 177.632812 438.5625 177.53125 437.898438 177.398438 C 437.230469 177.265625 436.570312 177.101562 435.921875 176.90625 C 435.269531 176.707031 434.632812 176.476562 434.003906 176.21875 C 433.375 175.957031 432.761719 175.667969 432.164062 175.347656 C 431.5625 175.027344 430.980469 174.679688 430.417969 174.300781 C 429.851562 173.921875 429.308594 173.519531 428.78125 173.089844 C 428.257812 172.65625 427.753906 172.199219 427.273438 171.71875 C 426.792969 171.238281 426.335938 170.738281 425.90625 170.210938 C 425.472656 169.6875 425.070312 169.140625 424.691406 168.578125 C 424.316406 168.011719 423.964844 167.429688 423.644531 166.828125 C 423.324219 166.230469 423.035156 165.617188 422.773438 164.988281 C 422.515625 164.363281 422.285156 163.722656 422.089844 163.070312 C 421.890625 162.421875 421.726562 161.761719 421.59375 161.097656 C 421.460938 160.429688 421.363281 159.757812 421.296875 159.082031 C 421.230469 158.40625 421.195312 157.730469 421.195312 157.050781 C 421.195312 156.371094 421.230469 155.691406 421.296875 155.015625 C 421.363281 154.339844 421.460938 153.667969 421.59375 153 C 421.726562 152.335938 421.890625 151.675781 422.089844 151.027344 C 422.285156 150.375 422.515625 149.738281 422.773438 149.109375 C 423.035156 148.480469 423.324219 147.867188 423.644531 147.269531 C 423.964844 146.667969 424.316406 146.085938 424.691406 145.523438 C 425.070312 144.957031 425.472656 144.410156 425.90625 143.886719 C 426.335938 143.359375 426.792969 142.859375 427.273438 142.378906 C 427.753906 141.898438 428.257812 141.441406 428.78125 141.011719 C 429.308594 140.578125 429.851562 140.175781 430.417969 139.796875 C 430.980469 139.417969 431.5625 139.070312 432.164062 138.75 C 432.761719 138.429688 433.375 138.140625 434.003906 137.878906 C 434.632812 137.621094 435.269531 137.390625 435.921875 137.195312 C 436.570312 136.996094 437.230469 136.832031 437.898438 136.699219 C 438.5625 136.566406 439.234375 136.46875 439.910156 136.398438 C 440.585938 136.332031 441.265625 136.300781 441.945312 136.300781 C 442.625 136.300781 443.300781 136.332031 443.976562 136.398438 C 444.65625 136.46875 445.324219 136.566406 445.992188 136.699219 C 446.660156 136.832031 447.316406 136.996094 447.96875 137.195312 C 448.617188 137.390625 449.257812 137.621094 449.882812 137.878906 C 450.511719 138.140625 451.125 138.429688 451.726562 138.75 C 452.324219 139.070312 452.90625 139.417969 453.472656 139.796875 C 454.035156 140.175781 454.582031 140.578125 455.105469 141.011719 C 455.632812 141.441406 456.136719 141.898438 456.617188 142.378906 C 457.097656 142.859375 457.550781 143.359375 457.984375 143.886719 C 458.414062 144.410156 458.820312 144.957031 459.195312 145.523438 C 459.574219 146.085938 459.921875 146.667969 460.242188 147.269531 C 460.5625 147.867188 460.855469 148.480469 461.113281 149.109375 C 461.375 149.738281 461.601562 150.375 461.800781 151.027344 C 461.996094 151.675781 462.160156 152.335938 462.292969 153 C 462.425781 153.667969 462.527344 154.339844 462.59375 155.015625 C 462.660156 155.691406 462.691406 156.371094 462.691406 157.050781 Z M 462.691406 157.050781 " fill-opacity="1" fill-rule="nonzero"/><path fill="#1d1d1d" d="M 282.652344 465.265625 C 282.652344 477.621094 272.640625 487.632812 260.285156 487.632812 C 247.929688 487.632812 237.917969 477.621094 237.917969 465.265625 C 237.917969 452.910156 247.929688 442.898438 260.285156 442.898438 C 272.640625 442.898438 282.652344 452.910156 282.652344 465.265625 Z M 282.652344 465.265625 " fill-opacity="1" fill-rule="nonzero"/><path fill="#1d1d1d" d="M 552.203125 247.34375 L 581.242188 218.316406 C 592.351562 207.214844 576.589844 189.507812 564.667969 199.738281 C 564.027344 200.289062 563.402344 200.867188 562.792969 201.476562 L 532.59375 231.671875 L 271.472656 492.796875 C 276.253906 499.695312 281.480469 506.238281 287.140625 512.398438 Z M 552.203125 247.34375 " fill-opacity="1" fill-rule="nonzero"/><path fill="#5f62e2" d="M 271.847656 234.6875 L 357.246094 320.089844 C 371.875 334.714844 395.597656 334.714844 410.226562 320.089844 C 424.851562 305.460938 424.851562 281.738281 410.226562 267.109375 L 324.824219 181.710938 C 310.195312 167.082031 286.472656 167.082031 271.847656 181.710938 C 257.214844 196.335938 257.214844 220.054688 271.847656 234.6875 Z M 271.847656 234.6875 " fill-opacity="1" fill-rule="nonzero"/><path fill="#ffb502" d="M 271.847656 405.386719 C 286.472656 420.015625 310.195312 420.015625 324.824219 405.386719 L 410.226562 319.984375 C 424.851562 305.355469 424.851562 281.636719 410.226562 267.007812 C 395.597656 252.375 371.875 252.375 357.246094 267.007812 L 271.847656 352.40625 C 257.214844 367.039062 257.214844 390.757812 271.847656 405.386719 Z M 271.847656 405.386719 " fill-opacity="1" fill-rule="nonzero"/><path fill="#5f62e2" d="M 577.5 536.777344 L 492.097656 451.375 C 477.46875 436.746094 453.746094 436.746094 439.121094 451.375 C 424.492188 466.003906 424.492188 489.726562 439.121094 504.351562 L 524.519531 589.753906 C 539.148438 604.382812 562.871094 604.382812 577.5 589.753906 C 592.125 575.121094 592.125 551.402344 577.5 536.777344 Z M 577.5 536.777344 " fill-opacity="1" fill-rule="nonzero"/><path fill="#ffb502" d="M 577.5 366.074219 C 562.867188 351.445312 539.148438 351.445312 524.519531 366.074219 L 439.121094 451.476562 C 424.492188 466.101562 424.492188 489.824219 439.121094 504.453125 C 453.746094 519.082031 477.46875 519.082031 492.097656 504.453125 L 577.5 419.050781 C 592.125 404.425781 592.125 380.707031 577.5 366.074219 Z M 577.5 366.074219 " fill-opacity="1" fill-rule="nonzero"/></svg>