<?xml version="1.0" encoding="iso-8859-1"?>
<!-- Uploaded to: SVG Repo, www.svgrepo.com, Generator: SVG Repo Mixer Tools -->
<svg height="800px" width="800px" version="1.1" id="Layer_1" xmlns="http://www.w3.org/2000/svg" xmlns:xlink="http://www.w3.org/1999/xlink" 
	 viewBox="0 0 512 512" xml:space="preserve">
<circle style="fill:#F9B54C;" cx="256" cy="256" r="256"/>
<path style="fill:#F4A200;" d="M508.975,295.44L373.16,159.625L234.02,323.377l-89.795,35.185l150.523,150.523
	C404.878,492.361,491.96,405.473,508.975,295.44z"/>
<circle style="fill:#B97850;" cx="256" cy="256" r="151.704"/>
<path style="fill:#9A4F03;" d="M256,104.296c83.784,0,151.704,67.92,151.704,151.704S339.784,407.704,256,407.704V104.296z"/>
<path style="fill:#FFFFFF;" d="M133.897,256c0,0,54.667-74.926,122.103-74.926S378.103,256,378.103,256S323.436,330.926,256,330.926
	S133.897,256,133.897,256z"/>
<path style="fill:#D0D1D3;" d="M256,181.074c67.436,0,122.103,74.926,122.103,74.926S323.436,330.926,256,330.926V181.074z"/>
<circle style="fill:#31BAFD;" cx="256" cy="256" r="61.052"/>
<path style="fill:#2B9ED8;" d="M256,194.948c33.718,0,61.052,27.334,61.052,61.052S289.718,317.052,256,317.052V194.948z"/>
<circle style="fill:#324A5E;" cx="256" cy="256" r="30.525"/>
<path style="fill:#2B3B4E;" d="M256,225.475c16.858,0,30.525,13.667,30.525,30.525S272.858,286.525,256,286.525V225.475z"/>
</svg>